<svg xmlns="http://www.w3.org/2000/svg" xmlns:xlink="http://www.w3.org/1999/xlink" version="1.1" id="Calque_1" x="0px" y="0px" style="enable-background:new 0 0 595.3 841.9;" xml:space="preserve" viewBox="143.5 244.26 309.06 241.24">
<style type="text/css">
	.st0{fill:#393A3F;}
</style>
<g>
	<g>
		<path class="st0" d="M213.1,416.6c-2.7,1.9-8.3-3.1-10.7,2.9c-2.1,5.1-3.5,10.5-5.3,15.8c-0.7,2-0.7,4.2,1.7,4.3    c6.2,0.3,12.8,1.1,18.7-0.4c3.8-1,3.7-7,5-10.9C226.5,416.1,228.4,416.6,213.1,416.6z M226.1,381.7c-11.1,0-11.1,0-14.6,10.6    c-0.9,2.6-1.9,5.2-2.6,7.9c-0.5,1.8-0.8,4.2,1.9,4.3c6,0.3,12.3,1.2,18-0.2c4.6-1.1,4-7.3,5.5-11.3    C238.2,381.7,238,381.7,226.1,381.7z M232.7,346.3c-4.4,0-7,1.1-7.8,5.6c-0.4,2-1.4,3.9-2,5.9c-3.8,11.4-3.8,11.4,8.5,11.5    c5.4-0.2,11,1.7,13.3-6.6C249.5,346.1,250,346.4,232.7,346.3z M258.5,416.9c-6.2-0.4-12.6-1.1-18.6,0.2c-4.2,0.9-3.7,6.8-5.1,10.6    c-4.9,13.3-4.3,12.2,9.5,12.2c2.7-1.7,8.2,3,10.4-3.4c1.7-5,3.4-10,5.1-15C260.4,419.6,260.9,417.1,258.5,416.9z M261.3,381.7    c-11.4,0-11.4,0-15,11c-0.9,2.6-1.9,5.2-2.6,7.9c-0.5,2-0.3,4,2.3,4c6,0.1,12.4,1,18-0.5c4.2-1.2,4-7.3,5.4-11.4    C273.3,381.7,273.2,381.7,261.3,381.7z M269.8,346.3c-6.4-0.3-9.4,1.8-10.6,7.6c-0.3,1.3-0.9,2.6-1.3,3.9    c-3.8,11.4-3.8,11.4,8.5,11.4c12.6-0.2,10.1,1.9,13.7-8.7C284.8,346.6,284.7,347,269.8,346.3z M298.1,381.7    c-13.1,0-13,0.1-17,11.8c-4.6,13.4-3.3,11.2,8.2,11.4c11,0,11,0,14.6-10.6c0.4-1.1,0.8-2.2,1.1-3.3    C308,381.7,308,381.7,298.1,381.7z M301.6,346.3c-3.6,0.1-5.6,1.3-6.4,4.7c-0.5,2.2-1.5,4.4-2.1,6.6c-4,13.1-4.8,11.6,8.6,11.6    c5.1-0.3,10.6,2,13-6.3C319.7,345.6,320.2,345.9,301.6,346.3z M301.6,346.3c-3.6,0.1-5.6,1.3-6.4,4.7c-0.5,2.2-1.5,4.4-2.1,6.6    c-4,13.1-4.8,11.6,8.6,11.6c5.1-0.3,10.6,2,13-6.3C319.7,345.6,320.2,345.9,301.6,346.3z M298.1,381.7c-13.1,0-13,0.1-17,11.8    c-4.6,13.4-3.3,11.2,8.2,11.4c11,0,11,0,14.6-10.6c0.4-1.1,0.8-2.2,1.1-3.3C308,381.7,308,381.7,298.1,381.7z M269.8,346.3    c-6.4-0.3-9.4,1.8-10.6,7.6c-0.3,1.3-0.9,2.6-1.3,3.9c-3.8,11.4-3.8,11.4,8.5,11.4c12.6-0.2,10.1,1.9,13.7-8.7    C284.8,346.6,284.7,347,269.8,346.3z M261.3,381.7c-11.4,0-11.4,0-15,11c-0.9,2.6-1.9,5.2-2.6,7.9c-0.5,2-0.3,4,2.3,4    c6,0.1,12.4,1,18-0.5c4.2-1.2,4-7.3,5.4-11.4C273.3,381.7,273.2,381.7,261.3,381.7z M258.5,416.9c-6.2-0.4-12.6-1.1-18.6,0.2    c-4.2,0.9-3.7,6.8-5.1,10.6c-4.9,13.3-4.3,12.2,9.5,12.2c2.7-1.7,8.2,3,10.4-3.4c1.7-5,3.4-10,5.1-15    C260.4,419.6,260.9,417.1,258.5,416.9z M232.7,346.3c-4.4,0-7,1.1-7.8,5.6c-0.4,2-1.4,3.9-2,5.9c-3.8,11.4-3.8,11.4,8.5,11.5    c5.4-0.2,11,1.7,13.3-6.6C249.5,346.1,250,346.4,232.7,346.3z M226.1,381.7c-11.1,0-11.1,0-14.6,10.6c-0.9,2.6-1.9,5.2-2.6,7.9    c-0.5,1.8-0.8,4.2,1.9,4.3c6,0.3,12.3,1.2,18-0.2c4.6-1.1,4-7.3,5.5-11.3C238.2,381.7,238,381.7,226.1,381.7z M213.1,416.6    c-2.7,1.9-8.3-3.1-10.7,2.9c-2.1,5.1-3.5,10.5-5.3,15.8c-0.7,2-0.7,4.2,1.7,4.3c6.2,0.3,12.8,1.1,18.7-0.4c3.8-1,3.7-7,5-10.9    C226.5,416.1,228.4,416.6,213.1,416.6z M213.1,416.6c-2.7,1.9-8.3-3.1-10.7,2.9c-2.1,5.1-3.5,10.5-5.3,15.8    c-0.7,2-0.7,4.2,1.7,4.3c6.2,0.3,12.8,1.1,18.7-0.4c3.8-1,3.7-7,5-10.9C226.5,416.1,228.4,416.6,213.1,416.6z M226.1,381.7    c-11.1,0-11.1,0-14.6,10.6c-0.9,2.6-1.9,5.2-2.6,7.9c-0.5,1.8-0.8,4.2,1.9,4.3c6,0.3,12.3,1.2,18-0.2c4.6-1.1,4-7.3,5.5-11.3    C238.2,381.7,238,381.7,226.1,381.7z M232.7,346.3c-4.4,0-7,1.1-7.8,5.6c-0.4,2-1.4,3.9-2,5.9c-3.8,11.4-3.8,11.4,8.5,11.5    c5.4-0.2,11,1.7,13.3-6.6C249.5,346.1,250,346.4,232.7,346.3z M258.5,416.9c-6.2-0.4-12.6-1.1-18.6,0.2c-4.2,0.9-3.7,6.8-5.1,10.6    c-4.9,13.3-4.3,12.2,9.5,12.2c2.7-1.7,8.2,3,10.4-3.4c1.7-5,3.4-10,5.1-15C260.4,419.6,260.9,417.1,258.5,416.9z M261.3,381.7    c-11.4,0-11.4,0-15,11c-0.9,2.6-1.9,5.2-2.6,7.9c-0.5,2-0.3,4,2.3,4c6,0.1,12.4,1,18-0.5c4.2-1.2,4-7.3,5.4-11.4    C273.3,381.7,273.2,381.7,261.3,381.7z M269.8,346.3c-6.4-0.3-9.4,1.8-10.6,7.6c-0.3,1.3-0.9,2.6-1.3,3.9    c-3.8,11.4-3.8,11.4,8.5,11.4c12.6-0.2,10.1,1.9,13.7-8.7C284.8,346.6,284.7,347,269.8,346.3z M298.1,381.7    c-13.1,0-13,0.1-17,11.8c-4.6,13.4-3.3,11.2,8.2,11.4c11,0,11,0,14.6-10.6c0.4-1.1,0.8-2.2,1.1-3.3    C308,381.7,308,381.7,298.1,381.7z M301.6,346.3c-3.6,0.1-5.6,1.3-6.4,4.7c-0.5,2.2-1.5,4.4-2.1,6.6c-4,13.1-4.8,11.6,8.6,11.6    c5.1-0.3,10.6,2,13-6.3C319.7,345.6,320.2,345.9,301.6,346.3z M301.6,346.3c-3.6,0.1-5.6,1.3-6.4,4.7c-0.5,2.2-1.5,4.4-2.1,6.6    c-4,13.1-4.8,11.6,8.6,11.6c5.1-0.3,10.6,2,13-6.3C319.7,345.6,320.2,345.9,301.6,346.3z M298.1,381.7c-13.1,0-13,0.1-17,11.8    c-4.6,13.4-3.3,11.2,8.2,11.4c11,0,11,0,14.6-10.6c0.4-1.1,0.8-2.2,1.1-3.3C308,381.7,308,381.7,298.1,381.7z M269.8,346.3    c-6.4-0.3-9.4,1.8-10.6,7.6c-0.3,1.3-0.9,2.6-1.3,3.9c-3.8,11.4-3.8,11.4,8.5,11.4c12.6-0.2,10.1,1.9,13.7-8.7    C284.8,346.6,284.7,347,269.8,346.3z M261.3,381.7c-11.4,0-11.4,0-15,11c-0.9,2.6-1.9,5.2-2.6,7.9c-0.5,2-0.3,4,2.3,4    c6,0.1,12.4,1,18-0.5c4.2-1.2,4-7.3,5.4-11.4C273.3,381.7,273.2,381.7,261.3,381.7z M258.5,416.9c-6.2-0.4-12.6-1.1-18.6,0.2    c-4.2,0.9-3.7,6.8-5.1,10.6c-4.9,13.3-4.3,12.2,9.5,12.2c2.7-1.7,8.2,3,10.4-3.4c1.7-5,3.4-10,5.1-15    C260.4,419.6,260.9,417.1,258.5,416.9z M232.7,346.3c-4.4,0-7,1.1-7.8,5.6c-0.4,2-1.4,3.9-2,5.9c-3.8,11.4-3.8,11.4,8.5,11.5    c5.4-0.2,11,1.7,13.3-6.6C249.5,346.1,250,346.4,232.7,346.3z M226.1,381.7c-11.1,0-11.1,0-14.6,10.6c-0.9,2.6-1.9,5.2-2.6,7.9    c-0.5,1.8-0.8,4.2,1.9,4.3c6,0.3,12.3,1.2,18-0.2c4.6-1.1,4-7.3,5.5-11.3C238.2,381.7,238,381.7,226.1,381.7z M213.1,416.6    c-2.7,1.9-8.3-3.1-10.7,2.9c-2.1,5.1-3.5,10.5-5.3,15.8c-0.7,2-0.7,4.2,1.7,4.3c6.2,0.3,12.8,1.1,18.7-0.4c3.8-1,3.7-7,5-10.9    C226.5,416.1,228.4,416.6,213.1,416.6z M213.1,416.6c-2.7,1.9-8.3-3.1-10.7,2.9c-2.1,5.1-3.5,10.5-5.3,15.8    c-0.7,2-0.7,4.2,1.7,4.3c6.2,0.3,12.8,1.1,18.7-0.4c3.8-1,3.7-7,5-10.9C226.5,416.1,228.4,416.6,213.1,416.6z M226.1,381.7    c-11.1,0-11.1,0-14.6,10.6c-0.9,2.6-1.9,5.2-2.6,7.9c-0.5,1.8-0.8,4.2,1.9,4.3c6,0.3,12.3,1.2,18-0.2c4.6-1.1,4-7.3,5.5-11.3    C238.2,381.7,238,381.7,226.1,381.7z M232.7,346.3c-4.4,0-7,1.1-7.8,5.6c-0.4,2-1.4,3.9-2,5.9c-3.8,11.4-3.8,11.4,8.5,11.5    c5.4-0.2,11,1.7,13.3-6.6C249.5,346.1,250,346.4,232.7,346.3z M258.5,416.9c-6.2-0.4-12.6-1.1-18.6,0.2c-4.2,0.9-3.7,6.8-5.1,10.6    c-4.9,13.3-4.3,12.2,9.5,12.2c2.7-1.7,8.2,3,10.4-3.4c1.7-5,3.4-10,5.1-15C260.4,419.6,260.9,417.1,258.5,416.9z M261.3,381.7    c-11.4,0-11.4,0-15,11c-0.9,2.6-1.9,5.2-2.6,7.9c-0.5,2-0.3,4,2.3,4c6,0.1,12.4,1,18-0.5c4.2-1.2,4-7.3,5.4-11.4    C273.3,381.7,273.2,381.7,261.3,381.7z M269.8,346.3c-6.4-0.3-9.4,1.8-10.6,7.6c-0.3,1.3-0.9,2.6-1.3,3.9    c-3.8,11.4-3.8,11.4,8.5,11.4c12.6-0.2,10.1,1.9,13.7-8.7C284.8,346.6,284.7,347,269.8,346.3z M298.1,381.7    c-13.1,0-13,0.1-17,11.8c-4.6,13.4-3.3,11.2,8.2,11.4c11,0,11,0,14.6-10.6c0.4-1.1,0.8-2.2,1.1-3.3    C308,381.7,308,381.7,298.1,381.7z M301.6,346.3c-3.6,0.1-5.6,1.3-6.4,4.7c-0.5,2.2-1.5,4.4-2.1,6.6c-4,13.1-4.8,11.6,8.6,11.6    c5.1-0.3,10.6,2,13-6.3C319.7,345.6,320.2,345.9,301.6,346.3z M301.6,346.3c-3.6,0.1-5.6,1.3-6.4,4.7c-0.5,2.2-1.5,4.4-2.1,6.6    c-4,13.1-4.8,11.6,8.6,11.6c5.1-0.3,10.6,2,13-6.3C319.7,345.6,320.2,345.9,301.6,346.3z M298.1,381.7c-13.1,0-13,0.1-17,11.8    c-4.6,13.4-3.3,11.2,8.2,11.4c11,0,11,0,14.6-10.6c0.4-1.1,0.8-2.2,1.1-3.3C308,381.7,308,381.7,298.1,381.7z M269.8,346.3    c-6.4-0.3-9.4,1.8-10.6,7.6c-0.3,1.3-0.9,2.6-1.3,3.9c-3.8,11.4-3.8,11.4,8.5,11.4c12.6-0.2,10.1,1.9,13.7-8.7    C284.8,346.6,284.7,347,269.8,346.3z M261.3,381.7c-11.4,0-11.4,0-15,11c-0.9,2.6-1.9,5.2-2.6,7.9c-0.5,2-0.3,4,2.3,4    c6,0.1,12.4,1,18-0.5c4.2-1.2,4-7.3,5.4-11.4C273.3,381.7,273.2,381.7,261.3,381.7z M258.5,416.9c-6.2-0.4-12.6-1.1-18.6,0.2    c-4.2,0.9-3.7,6.8-5.1,10.6c-4.9,13.3-4.3,12.2,9.5,12.2c2.7-1.7,8.2,3,10.4-3.4c1.7-5,3.4-10,5.1-15    C260.4,419.6,260.9,417.1,258.5,416.9z M232.7,346.3c-4.4,0-7,1.1-7.8,5.6c-0.4,2-1.4,3.9-2,5.9c-3.8,11.4-3.8,11.4,8.5,11.5    c5.4-0.2,11,1.7,13.3-6.6C249.5,346.1,250,346.4,232.7,346.3z M226.1,381.7c-11.1,0-11.1,0-14.6,10.6c-0.9,2.6-1.9,5.2-2.6,7.9    c-0.5,1.8-0.8,4.2,1.9,4.3c6,0.3,12.3,1.2,18-0.2c4.6-1.1,4-7.3,5.5-11.3C238.2,381.7,238,381.7,226.1,381.7z M213.1,416.6    c-2.7,1.9-8.3-3.1-10.7,2.9c-2.1,5.1-3.5,10.5-5.3,15.8c-0.7,2-0.7,4.2,1.7,4.3c6.2,0.3,12.8,1.1,18.7-0.4c3.8-1,3.7-7,5-10.9    C226.5,416.1,228.4,416.6,213.1,416.6z M213.1,416.6c-2.7,1.9-8.3-3.1-10.7,2.9c-2.1,5.1-3.5,10.5-5.3,15.8    c-0.7,2-0.7,4.2,1.7,4.3c6.2,0.3,12.8,1.1,18.7-0.4c3.8-1,3.7-7,5-10.9C226.5,416.1,228.4,416.6,213.1,416.6z M226.1,381.7    c-11.1,0-11.1,0-14.6,10.6c-0.9,2.6-1.9,5.2-2.6,7.9c-0.5,1.8-0.8,4.2,1.9,4.3c6,0.3,12.3,1.2,18-0.2c4.6-1.1,4-7.3,5.5-11.3    C238.2,381.7,238,381.7,226.1,381.7z M232.7,346.3c-4.4,0-7,1.1-7.8,5.6c-0.4,2-1.4,3.9-2,5.9c-3.8,11.4-3.8,11.4,8.5,11.5    c5.4-0.2,11,1.7,13.3-6.6C249.5,346.1,250,346.4,232.7,346.3z M258.5,416.9c-6.2-0.4-12.6-1.1-18.6,0.2c-4.2,0.9-3.7,6.8-5.1,10.6    c-4.9,13.3-4.3,12.2,9.5,12.2c2.7-1.7,8.2,3,10.4-3.4c1.7-5,3.4-10,5.1-15C260.4,419.6,260.9,417.1,258.5,416.9z M261.3,381.7    c-11.4,0-11.4,0-15,11c-0.9,2.6-1.9,5.2-2.6,7.9c-0.5,2-0.3,4,2.3,4c6,0.1,12.4,1,18-0.5c4.2-1.2,4-7.3,5.4-11.4    C273.3,381.7,273.2,381.7,261.3,381.7z M269.8,346.3c-6.4-0.3-9.4,1.8-10.6,7.6c-0.3,1.3-0.9,2.6-1.3,3.9    c-3.8,11.4-3.8,11.4,8.5,11.4c12.6-0.2,10.1,1.9,13.7-8.7C284.8,346.6,284.7,347,269.8,346.3z M298.1,381.7    c-13.1,0-13,0.1-17,11.8c-4.6,13.4-3.3,11.2,8.2,11.4c11,0,11,0,14.6-10.6c0.4-1.1,0.8-2.2,1.1-3.3    C308,381.7,308,381.7,298.1,381.7z M301.6,346.3c-3.6,0.1-5.6,1.3-6.4,4.7c-0.5,2.2-1.5,4.4-2.1,6.6c-4,13.1-4.8,11.6,8.6,11.6    c5.1-0.3,10.6,2,13-6.3C319.7,345.6,320.2,345.9,301.6,346.3z M301.6,346.3c-3.6,0.1-5.6,1.3-6.4,4.7c-0.5,2.2-1.5,4.4-2.1,6.6    c-4,13.1-4.8,11.6,8.6,11.6c5.1-0.3,10.6,2,13-6.3C319.7,345.6,320.2,345.9,301.6,346.3z M298.1,381.7c-13.1,0-13,0.1-17,11.8    c-4.6,13.4-3.3,11.2,8.2,11.4c11,0,11,0,14.6-10.6c0.4-1.1,0.8-2.2,1.1-3.3C308,381.7,308,381.7,298.1,381.7z M269.8,346.3    c-6.4-0.3-9.4,1.8-10.6,7.6c-0.3,1.3-0.9,2.6-1.3,3.9c-3.8,11.4-3.8,11.4,8.5,11.4c12.6-0.2,10.1,1.9,13.7-8.7    C284.8,346.6,284.7,347,269.8,346.3z M261.3,381.7c-11.4,0-11.4,0-15,11c-0.9,2.6-1.9,5.2-2.6,7.9c-0.5,2-0.3,4,2.3,4    c6,0.1,12.4,1,18-0.5c4.2-1.2,4-7.3,5.4-11.4C273.3,381.7,273.2,381.7,261.3,381.7z M258.5,416.9c-6.2-0.4-12.6-1.1-18.6,0.2    c-4.2,0.9-3.7,6.8-5.1,10.6c-4.9,13.3-4.3,12.2,9.5,12.2c2.7-1.7,8.2,3,10.4-3.4c1.7-5,3.4-10,5.1-15    C260.4,419.6,260.9,417.1,258.5,416.9z M232.7,346.3c-4.4,0-7,1.1-7.8,5.6c-0.4,2-1.4,3.9-2,5.9c-3.8,11.4-3.8,11.4,8.5,11.5    c5.4-0.2,11,1.7,13.3-6.6C249.5,346.1,250,346.4,232.7,346.3z M226.1,381.7c-11.1,0-11.1,0-14.6,10.6c-0.9,2.6-1.9,5.2-2.6,7.9    c-0.5,1.8-0.8,4.2,1.9,4.3c6,0.3,12.3,1.2,18-0.2c4.6-1.1,4-7.3,5.5-11.3C238.2,381.7,238,381.7,226.1,381.7z M213.1,416.6    c-2.7,1.9-8.3-3.1-10.7,2.9c-2.1,5.1-3.5,10.5-5.3,15.8c-0.7,2-0.7,4.2,1.7,4.3c6.2,0.3,12.8,1.1,18.7-0.4c3.8-1,3.7-7,5-10.9    C226.5,416.1,228.4,416.6,213.1,416.6z M213.1,416.6c-2.7,1.9-8.3-3.1-10.7,2.9c-2.1,5.1-3.5,10.5-5.3,15.8    c-0.7,2-0.7,4.2,1.7,4.3c6.2,0.3,12.8,1.1,18.7-0.4c3.8-1,3.7-7,5-10.9C226.5,416.1,228.4,416.6,213.1,416.6z M226.1,381.7    c-11.1,0-11.1,0-14.6,10.6c-0.9,2.6-1.9,5.2-2.6,7.9c-0.5,1.8-0.8,4.2,1.9,4.3c6,0.3,12.3,1.2,18-0.2c4.6-1.1,4-7.3,5.5-11.3    C238.2,381.7,238,381.7,226.1,381.7z M232.7,346.3c-4.4,0-7,1.1-7.8,5.6c-0.4,2-1.4,3.9-2,5.9c-3.8,11.4-3.8,11.4,8.5,11.5    c5.4-0.2,11,1.7,13.3-6.6C249.5,346.1,250,346.4,232.7,346.3z M258.5,416.9c-6.2-0.4-12.6-1.1-18.6,0.2c-4.2,0.9-3.7,6.8-5.1,10.6    c-4.9,13.3-4.3,12.2,9.5,12.2c2.7-1.7,8.2,3,10.4-3.4c1.7-5,3.4-10,5.1-15C260.4,419.6,260.9,417.1,258.5,416.9z M261.3,381.7    c-11.4,0-11.4,0-15,11c-0.9,2.6-1.9,5.2-2.6,7.9c-0.5,2-0.3,4,2.3,4c6,0.1,12.4,1,18-0.5c4.2-1.2,4-7.3,5.4-11.4    C273.3,381.7,273.2,381.7,261.3,381.7z M269.8,346.3c-6.4-0.3-9.4,1.8-10.6,7.6c-0.3,1.3-0.9,2.6-1.3,3.9    c-3.8,11.4-3.8,11.4,8.5,11.4c12.6-0.2,10.1,1.9,13.7-8.7C284.8,346.6,284.7,347,269.8,346.3z M298.1,381.7    c-13.1,0-13,0.1-17,11.8c-4.6,13.4-3.3,11.2,8.2,11.4c11,0,11,0,14.6-10.6c0.4-1.1,0.8-2.2,1.1-3.3    C308,381.7,308,381.7,298.1,381.7z M301.6,346.3c-3.6,0.1-5.6,1.3-6.4,4.7c-0.5,2.2-1.5,4.4-2.1,6.6c-4,13.1-4.8,11.6,8.6,11.6    c5.1-0.3,10.6,2,13-6.3C319.7,345.6,320.2,345.9,301.6,346.3z M301.6,346.3c-3.6,0.1-5.6,1.3-6.4,4.7c-0.5,2.2-1.5,4.4-2.1,6.6    c-4,13.1-4.8,11.6,8.6,11.6c5.1-0.3,10.6,2,13-6.3C319.7,345.6,320.2,345.9,301.6,346.3z M298.1,381.7c-13.1,0-13,0.1-17,11.8    c-4.6,13.4-3.3,11.2,8.2,11.4c11,0,11,0,14.6-10.6c0.4-1.1,0.8-2.2,1.1-3.3C308,381.7,308,381.7,298.1,381.7z M269.8,346.3    c-6.4-0.3-9.4,1.8-10.6,7.6c-0.3,1.3-0.9,2.6-1.3,3.9c-3.8,11.4-3.8,11.4,8.5,11.4c12.6-0.2,10.1,1.9,13.7-8.7    C284.8,346.6,284.7,347,269.8,346.3z M261.3,381.7c-11.4,0-11.4,0-15,11c-0.9,2.6-1.9,5.2-2.6,7.9c-0.5,2-0.3,4,2.3,4    c6,0.1,12.4,1,18-0.5c4.2-1.2,4-7.3,5.4-11.4C273.3,381.7,273.2,381.7,261.3,381.7z M258.5,416.9c-6.2-0.4-12.6-1.1-18.6,0.2    c-4.2,0.9-3.7,6.8-5.1,10.6c-4.9,13.3-4.3,12.2,9.5,12.2c2.7-1.7,8.2,3,10.4-3.4c1.7-5,3.4-10,5.1-15    C260.4,419.6,260.9,417.1,258.5,416.9z M232.7,346.3c-4.4,0-7,1.1-7.8,5.6c-0.4,2-1.4,3.9-2,5.9c-3.8,11.4-3.8,11.4,8.5,11.5    c5.4-0.2,11,1.7,13.3-6.6C249.5,346.1,250,346.4,232.7,346.3z M226.1,381.7c-11.1,0-11.1,0-14.6,10.6c-0.9,2.6-1.9,5.2-2.6,7.9    c-0.5,1.8-0.8,4.2,1.9,4.3c6,0.3,12.3,1.2,18-0.2c4.6-1.1,4-7.3,5.5-11.3C238.2,381.7,238,381.7,226.1,381.7z M213.1,416.6    c-2.7,1.9-8.3-3.1-10.7,2.9c-2.1,5.1-3.5,10.5-5.3,15.8c-0.7,2-0.7,4.2,1.7,4.3c6.2,0.3,12.8,1.1,18.7-0.4c3.8-1,3.7-7,5-10.9    C226.5,416.1,228.4,416.6,213.1,416.6z M213.1,416.6c-2.7,1.9-8.3-3.1-10.7,2.9c-2.1,5.1-3.5,10.5-5.3,15.8    c-0.7,2-0.7,4.2,1.7,4.3c6.2,0.3,12.8,1.1,18.7-0.4c3.8-1,3.7-7,5-10.9C226.5,416.1,228.4,416.6,213.1,416.6z M226.1,381.7    c-11.1,0-11.1,0-14.6,10.6c-0.9,2.6-1.9,5.2-2.6,7.9c-0.5,1.8-0.8,4.2,1.9,4.3c6,0.3,12.3,1.2,18-0.2c4.6-1.1,4-7.3,5.5-11.3    C238.2,381.7,238,381.7,226.1,381.7z M232.7,346.3c-4.4,0-7,1.1-7.8,5.6c-0.4,2-1.4,3.9-2,5.9c-3.8,11.4-3.8,11.4,8.5,11.5    c5.4-0.2,11,1.7,13.3-6.6C249.5,346.1,250,346.4,232.7,346.3z M258.5,416.9c-6.2-0.4-12.6-1.1-18.6,0.2c-4.2,0.9-3.7,6.8-5.1,10.6    c-4.9,13.3-4.3,12.2,9.5,12.2c2.7-1.7,8.2,3,10.4-3.4c1.7-5,3.4-10,5.1-15C260.4,419.6,260.9,417.1,258.5,416.9z M261.3,381.7    c-11.4,0-11.4,0-15,11c-0.9,2.6-1.9,5.2-2.6,7.9c-0.5,2-0.3,4,2.3,4c6,0.1,12.4,1,18-0.5c4.2-1.2,4-7.3,5.4-11.4    C273.3,381.7,273.2,381.7,261.3,381.7z M269.8,346.3c-6.4-0.3-9.4,1.8-10.6,7.6c-0.3,1.3-0.9,2.6-1.3,3.9    c-3.8,11.4-3.8,11.4,8.5,11.4c12.6-0.2,10.1,1.9,13.7-8.7C284.8,346.6,284.7,347,269.8,346.3z M292.3,277.1L292.3,277.1    C292.4,277.1,292.4,277.1,292.3,277.1C292.4,277.1,292.4,277.1,292.3,277.1z M298.1,381.7c-13.1,0-13,0.1-17,11.8    c-4.6,13.4-3.3,11.2,8.2,11.4c11,0,11,0,14.6-10.6c0.4-1.1,0.8-2.2,1.1-3.3C308,381.7,308,381.7,298.1,381.7z M301.6,346.3    c-3.6,0.1-5.6,1.3-6.4,4.7c-0.5,2.2-1.5,4.4-2.1,6.6c-4,13.1-4.8,11.6,8.6,11.6c5.1-0.3,10.6,2,13-6.3    C319.7,345.6,320.2,345.9,301.6,346.3z M301.6,346.3c-3.6,0.1-5.6,1.3-6.4,4.7c-0.5,2.2-1.5,4.4-2.1,6.6    c-4,13.1-4.8,11.6,8.6,11.6c5.1-0.3,10.6,2,13-6.3C319.7,345.6,320.2,345.9,301.6,346.3z M298.1,381.7c-13.1,0-13,0.1-17,11.8    c-4.6,13.4-3.3,11.2,8.2,11.4c11,0,11,0,14.6-10.6c0.4-1.1,0.8-2.2,1.1-3.3C308,381.7,308,381.7,298.1,381.7z M269.8,346.3    c-6.4-0.3-9.4,1.8-10.6,7.6c-0.3,1.3-0.9,2.6-1.3,3.9c-3.8,11.4-3.8,11.4,8.5,11.4c12.6-0.2,10.1,1.9,13.7-8.7    C284.8,346.6,284.7,347,269.8,346.3z M261.3,381.7c-11.4,0-11.4,0-15,11c-0.9,2.6-1.9,5.2-2.6,7.9c-0.5,2-0.3,4,2.3,4    c6,0.1,12.4,1,18-0.5c4.2-1.2,4-7.3,5.4-11.4C273.3,381.7,273.2,381.7,261.3,381.7z M258.5,416.9c-6.2-0.4-12.6-1.1-18.6,0.2    c-4.2,0.9-3.7,6.8-5.1,10.6c-4.9,13.3-4.3,12.2,9.5,12.2c2.7-1.7,8.2,3,10.4-3.4c1.7-5,3.4-10,5.1-15    C260.4,419.6,260.9,417.1,258.5,416.9z M232.7,346.3c-4.4,0-7,1.1-7.8,5.6c-0.4,2-1.4,3.9-2,5.9c-3.8,11.4-3.8,11.4,8.5,11.5    c5.4-0.2,11,1.7,13.3-6.6C249.5,346.1,250,346.4,232.7,346.3z M226.1,381.7c-11.1,0-11.1,0-14.6,10.6c-0.9,2.6-1.9,5.2-2.6,7.9    c-0.5,1.8-0.8,4.2,1.9,4.3c6,0.3,12.3,1.2,18-0.2c4.6-1.1,4-7.3,5.5-11.3C238.2,381.7,238,381.7,226.1,381.7z M213.1,416.6    c-2.7,1.9-8.3-3.1-10.7,2.9c-2.1,5.1-3.5,10.5-5.3,15.8c-0.7,2-0.7,4.2,1.7,4.3c6.2,0.3,12.8,1.1,18.7-0.4c3.8-1,3.7-7,5-10.9    C226.5,416.1,228.4,416.6,213.1,416.6z M213.1,416.6c-2.7,1.9-8.3-3.1-10.7,2.9c-2.1,5.1-3.5,10.5-5.3,15.8    c-0.7,2-0.7,4.2,1.7,4.3c6.2,0.3,12.8,1.1,18.7-0.4c3.8-1,3.7-7,5-10.9C226.5,416.1,228.4,416.6,213.1,416.6z M226.1,381.7    c-11.1,0-11.1,0-14.6,10.6c-0.9,2.6-1.9,5.2-2.6,7.9c-0.5,1.8-0.8,4.2,1.9,4.3c6,0.3,12.3,1.2,18-0.2c4.6-1.1,4-7.3,5.5-11.3    C238.2,381.7,238,381.7,226.1,381.7z M232.7,346.3c-4.4,0-7,1.1-7.8,5.6c-0.4,2-1.4,3.9-2,5.9c-3.8,11.4-3.8,11.4,8.5,11.5    c5.4-0.2,11,1.7,13.3-6.6C249.5,346.1,250,346.4,232.7,346.3z M258.5,416.9c-6.2-0.4-12.6-1.1-18.6,0.2c-4.2,0.9-3.7,6.8-5.1,10.6    c-4.9,13.3-4.3,12.2,9.5,12.2c2.7-1.7,8.2,3,10.4-3.4c1.7-5,3.4-10,5.1-15C260.4,419.6,260.9,417.1,258.5,416.9z M261.3,381.7    c-11.4,0-11.4,0-15,11c-0.9,2.6-1.9,5.2-2.6,7.9c-0.5,2-0.3,4,2.3,4c6,0.1,12.4,1,18-0.5c4.2-1.2,4-7.3,5.4-11.4    C273.3,381.7,273.2,381.7,261.3,381.7z M269.8,346.3c-6.4-0.3-9.4,1.8-10.6,7.6c-0.3,1.3-0.9,2.6-1.3,3.9    c-3.8,11.4-3.8,11.4,8.5,11.4c12.6-0.2,10.1,1.9,13.7-8.7C284.8,346.6,284.7,347,269.8,346.3z M292.3,277.1L292.3,277.1    C292.4,277.1,292.4,277.1,292.3,277.1C292.4,277.1,292.4,277.1,292.3,277.1z M298.1,381.7c-13.1,0-13,0.1-17,11.8    c-4.6,13.4-3.3,11.2,8.2,11.4c11,0,11,0,14.6-10.6c0.4-1.1,0.8-2.2,1.1-3.3C308,381.7,308,381.7,298.1,381.7z M301.6,346.3    c-3.6,0.1-5.6,1.3-6.4,4.7c-0.5,2.2-1.5,4.4-2.1,6.6c-4,13.1-4.8,11.6,8.6,11.6c5.1-0.3,10.6,2,13-6.3    C319.7,345.6,320.2,345.9,301.6,346.3z M301.6,346.3c-3.6,0.1-5.6,1.3-6.4,4.7c-0.5,2.2-1.5,4.4-2.1,6.6    c-4,13.1-4.8,11.6,8.6,11.6c5.1-0.3,10.6,2,13-6.3C319.7,345.6,320.2,345.9,301.6,346.3z M298.1,381.7c-13.1,0-13,0.1-17,11.8    c-4.6,13.4-3.3,11.2,8.2,11.4c11,0,11,0,14.6-10.6c0.4-1.1,0.8-2.2,1.1-3.3C308,381.7,308,381.7,298.1,381.7z M269.8,346.3    c-6.4-0.3-9.4,1.8-10.6,7.6c-0.3,1.3-0.9,2.6-1.3,3.9c-3.8,11.4-3.8,11.4,8.5,11.4c12.6-0.2,10.1,1.9,13.7-8.7    C284.8,346.6,284.7,347,269.8,346.3z M261.3,381.7c-11.4,0-11.4,0-15,11c-0.9,2.6-1.9,5.2-2.6,7.9c-0.5,2-0.3,4,2.3,4    c6,0.1,12.4,1,18-0.5c4.2-1.2,4-7.3,5.4-11.4C273.3,381.7,273.2,381.7,261.3,381.7z M258.5,416.9c-6.2-0.4-12.6-1.1-18.6,0.2    c-4.2,0.9-3.7,6.8-5.1,10.6c-4.9,13.3-4.3,12.2,9.5,12.2c2.7-1.7,8.2,3,10.4-3.4c1.7-5,3.4-10,5.1-15    C260.4,419.6,260.9,417.1,258.5,416.9z M232.7,346.3c-4.4,0-7,1.1-7.8,5.6c-0.4,2-1.4,3.9-2,5.9c-3.8,11.4-3.8,11.4,8.5,11.5    c5.4-0.2,11,1.7,13.3-6.6C249.5,346.1,250,346.4,232.7,346.3z M226.1,381.7c-11.1,0-11.1,0-14.6,10.6c-0.9,2.6-1.9,5.2-2.6,7.9    c-0.5,1.8-0.8,4.2,1.9,4.3c6,0.3,12.3,1.2,18-0.2c4.6-1.1,4-7.3,5.5-11.3C238.2,381.7,238,381.7,226.1,381.7z M213.1,416.6    c-2.7,1.9-8.3-3.1-10.7,2.9c-2.1,5.1-3.5,10.5-5.3,15.8c-0.7,2-0.7,4.2,1.7,4.3c6.2,0.3,12.8,1.1,18.7-0.4c3.8-1,3.7-7,5-10.9    C226.5,416.1,228.4,416.6,213.1,416.6z M213.1,416.6c-2.7,1.9-8.3-3.1-10.7,2.9c-2.1,5.1-3.5,10.5-5.3,15.8    c-0.7,2-0.7,4.2,1.7,4.3c6.2,0.3,12.8,1.1,18.7-0.4c3.8-1,3.7-7,5-10.9C226.5,416.1,228.4,416.6,213.1,416.6z M226.1,381.7    c-11.1,0-11.1,0-14.6,10.6c-0.9,2.6-1.9,5.2-2.6,7.9c-0.5,1.8-0.8,4.2,1.9,4.3c6,0.3,12.3,1.2,18-0.2c4.6-1.1,4-7.3,5.5-11.3    C238.2,381.7,238,381.7,226.1,381.7z M232.7,346.3c-4.4,0-7,1.1-7.8,5.6c-0.4,2-1.4,3.9-2,5.9c-3.8,11.4-3.8,11.4,8.5,11.5    c5.4-0.2,11,1.7,13.3-6.6C249.5,346.1,250,346.4,232.7,346.3z M258.5,416.9c-6.2-0.4-12.6-1.1-18.6,0.2c-4.2,0.9-3.7,6.8-5.1,10.6    c-4.9,13.3-4.3,12.2,9.5,12.2c2.7-1.7,8.2,3,10.4-3.4c1.7-5,3.4-10,5.1-15C260.4,419.6,260.9,417.1,258.5,416.9z M261.3,381.7    c-11.4,0-11.4,0-15,11c-0.9,2.6-1.9,5.2-2.6,7.9c-0.5,2-0.3,4,2.3,4c6,0.1,12.4,1,18-0.5c4.2-1.2,4-7.3,5.4-11.4    C273.3,381.7,273.2,381.7,261.3,381.7z M269.8,346.3c-6.4-0.3-9.4,1.8-10.6,7.6c-0.3,1.3-0.9,2.6-1.3,3.9    c-3.8,11.4-3.8,11.4,8.5,11.4c12.6-0.2,10.1,1.9,13.7-8.7C284.8,346.6,284.7,347,269.8,346.3z M292.3,277.1L292.3,277.1    C292.4,277.1,292.4,277.1,292.3,277.1C292.4,277.1,292.4,277.1,292.3,277.1z M298.1,381.7c-13.1,0-13,0.1-17,11.8    c-4.6,13.4-3.3,11.2,8.2,11.4c11,0,11,0,14.6-10.6c0.4-1.1,0.8-2.2,1.1-3.3C308,381.7,308,381.7,298.1,381.7z M301.6,346.3    c-3.6,0.1-5.6,1.3-6.4,4.7c-0.5,2.2-1.5,4.4-2.1,6.6c-4,13.1-4.8,11.6,8.6,11.6c5.1-0.3,10.6,2,13-6.3    C319.7,345.6,320.2,345.9,301.6,346.3z M301.6,346.3c-3.6,0.1-5.6,1.3-6.4,4.7c-0.5,2.2-1.5,4.4-2.1,6.6    c-4,13.1-4.8,11.6,8.6,11.6c5.1-0.3,10.6,2,13-6.3C319.7,345.6,320.2,345.9,301.6,346.3z M298.1,381.7c-13.1,0-13,0.1-17,11.8    c-4.6,13.4-3.3,11.2,8.2,11.4c11,0,11,0,14.6-10.6c0.4-1.1,0.8-2.2,1.1-3.3C308,381.7,308,381.7,298.1,381.7z M269.8,346.3    c-6.4-0.3-9.4,1.8-10.6,7.6c-0.3,1.3-0.9,2.6-1.3,3.9c-3.8,11.4-3.8,11.4,8.5,11.4c12.6-0.2,10.1,1.9,13.7-8.7    C284.8,346.6,284.7,347,269.8,346.3z M261.3,381.7c-11.4,0-11.4,0-15,11c-0.9,2.6-1.9,5.2-2.6,7.9c-0.5,2-0.3,4,2.3,4    c6,0.1,12.4,1,18-0.5c4.2-1.2,4-7.3,5.4-11.4C273.3,381.7,273.2,381.7,261.3,381.7z M258.5,416.9c-6.2-0.4-12.6-1.1-18.6,0.2    c-4.2,0.9-3.7,6.8-5.1,10.6c-4.9,13.3-4.3,12.2,9.5,12.2c2.7-1.7,8.2,3,10.4-3.4c1.7-5,3.4-10,5.1-15    C260.4,419.6,260.9,417.1,258.5,416.9z M232.7,346.3c-4.4,0-7,1.1-7.8,5.6c-0.4,2-1.4,3.9-2,5.9c-3.8,11.4-3.8,11.4,8.5,11.5    c5.4-0.2,11,1.7,13.3-6.6C249.5,346.1,250,346.4,232.7,346.3z M226.1,381.7c-11.1,0-11.1,0-14.6,10.6c-0.9,2.6-1.9,5.2-2.6,7.9    c-0.5,1.8-0.8,4.2,1.9,4.3c6,0.3,12.3,1.2,18-0.2c4.6-1.1,4-7.3,5.5-11.3C238.2,381.7,238,381.7,226.1,381.7z M213.1,416.6    c-2.7,1.9-8.3-3.1-10.7,2.9c-2.1,5.1-3.5,10.5-5.3,15.8c-0.7,2-0.7,4.2,1.7,4.3c6.2,0.3,12.8,1.1,18.7-0.4c3.8-1,3.7-7,5-10.9    C226.5,416.1,228.4,416.6,213.1,416.6z M213.1,416.6c-2.7,1.9-8.3-3.1-10.7,2.9c-2.1,5.1-3.5,10.5-5.3,15.8    c-0.7,2-0.7,4.2,1.7,4.3c6.2,0.3,12.8,1.1,18.7-0.4c3.8-1,3.7-7,5-10.9C226.5,416.1,228.4,416.6,213.1,416.6z M226.1,381.7    c-11.1,0-11.1,0-14.6,10.6c-0.9,2.6-1.9,5.2-2.6,7.9c-0.5,1.8-0.8,4.2,1.9,4.3c6,0.3,12.3,1.2,18-0.2c4.6-1.1,4-7.3,5.5-11.3    C238.2,381.7,238,381.7,226.1,381.7z M232.7,346.3c-4.4,0-7,1.1-7.8,5.6c-0.4,2-1.4,3.9-2,5.9c-3.8,11.4-3.8,11.4,8.5,11.5    c5.4-0.2,11,1.7,13.3-6.6C249.5,346.1,250,346.4,232.7,346.3z M258.5,416.9c-6.2-0.4-12.6-1.1-18.6,0.2c-4.2,0.9-3.7,6.8-5.1,10.6    c-4.9,13.3-4.3,12.2,9.5,12.2c2.7-1.7,8.2,3,10.4-3.4c1.7-5,3.4-10,5.1-15C260.4,419.6,260.9,417.1,258.5,416.9z M261.3,381.7    c-11.4,0-11.4,0-15,11c-0.9,2.6-1.9,5.2-2.6,7.9c-0.5,2-0.3,4,2.3,4c6,0.1,12.4,1,18-0.5c4.2-1.2,4-7.3,5.4-11.4    C273.3,381.7,273.2,381.7,261.3,381.7z M269.8,346.3c-6.4-0.3-9.4,1.8-10.6,7.6c-0.3,1.3-0.9,2.6-1.3,3.9    c-3.8,11.4-3.8,11.4,8.5,11.4c12.6-0.2,10.1,1.9,13.7-8.7C284.8,346.6,284.7,347,269.8,346.3z M292.3,277.1L292.3,277.1    C292.4,277.1,292.4,277.1,292.3,277.1C292.4,277.1,292.4,277.1,292.3,277.1z M298.1,381.7c-13.1,0-13,0.1-17,11.8    c-4.6,13.4-3.3,11.2,8.2,11.4c11,0,11,0,14.6-10.6c0.4-1.1,0.8-2.2,1.1-3.3C308,381.7,308,381.7,298.1,381.7z M301.6,346.3    c-3.6,0.1-5.6,1.3-6.4,4.7c-0.5,2.2-1.5,4.4-2.1,6.6c-4,13.1-4.8,11.6,8.6,11.6c5.1-0.3,10.6,2,13-6.3    C319.7,345.6,320.2,345.9,301.6,346.3z M301.6,346.3c-3.6,0.1-5.6,1.3-6.4,4.7c-0.5,2.2-1.5,4.4-2.1,6.6    c-4,13.1-4.8,11.6,8.6,11.6c5.1-0.3,10.6,2,13-6.3C319.7,345.6,320.2,345.9,301.6,346.3z M298.1,381.7c-13.1,0-13,0.1-17,11.8    c-4.6,13.4-3.3,11.2,8.2,11.4c11,0,11,0,14.6-10.6c0.4-1.1,0.8-2.2,1.1-3.3C308,381.7,308,381.7,298.1,381.7z M269.8,346.3    c-6.4-0.3-9.4,1.8-10.6,7.6c-0.3,1.3-0.9,2.6-1.3,3.9c-3.8,11.4-3.8,11.4,8.5,11.4c12.6-0.2,10.1,1.9,13.7-8.7    C284.8,346.6,284.7,347,269.8,346.3z M261.3,381.7c-11.4,0-11.4,0-15,11c-0.9,2.6-1.9,5.2-2.6,7.9c-0.5,2-0.3,4,2.3,4    c6,0.1,12.4,1,18-0.5c4.2-1.2,4-7.3,5.4-11.4C273.3,381.7,273.2,381.7,261.3,381.7z M258.5,416.9c-6.2-0.4-12.6-1.1-18.6,0.2    c-4.2,0.9-3.7,6.8-5.1,10.6c-4.9,13.3-4.3,12.2,9.5,12.2c2.7-1.7,8.2,3,10.4-3.4c1.7-5,3.4-10,5.1-15    C260.4,419.6,260.9,417.1,258.5,416.9z M231.4,369.3c5.4-0.2,11,1.7,13.3-6.6c4.7-16.6,5.3-16.3-12-16.3c-4.4,0-7,1.1-7.8,5.6    c-0.4,2-1.4,3.9-2,5.9C219.1,369.3,219.1,369.3,231.4,369.3z M226.1,381.7c-11.1,0-11.1,0-14.6,10.6c-0.9,2.6-1.9,5.2-2.6,7.9    c-0.5,1.8-0.8,4.2,1.9,4.3c6,0.3,12.3,1.2,18-0.2c4.6-1.1,4-7.3,5.5-11.3C238.2,381.7,238,381.7,226.1,381.7z M213.1,416.6    c-2.7,1.9-8.3-3.1-10.7,2.9c-2.1,5.1-3.5,10.5-5.3,15.8c-0.7,2-0.7,4.2,1.7,4.3c6.2,0.3,12.8,1.1,18.7-0.4c3.8-1,3.7-7,5-10.9    C226.5,416.1,228.4,416.6,213.1,416.6z M450.9,475.2c-19.8-59.3-39.8-118.6-59.4-178c-7.4-22.3-6.4-20.1-27.9-20    c-1.5,5.2-1.4,10.8-3.7,15.9c-4.9,11-14.1,17.8-24.3,17.5c-10-0.3-19.4-7.8-23.5-18.7c-1.8-4.7-2.3-9.7-3-14.7h-16.6    c-0.3,13.4,4.1,19.9,16.5,24.2c3.6,1.3,4.8,4.7,7.3,7.1c-7.6,3.8-15.9,2.1-22.8-4.5c-7.7-7.3-10.2-16.7-10.9-26.8c-6,0-12,0-18,0    c-0.5,13.5,4.9,21.2,17.3,24.1c4.2,1,5.1,4.8,7.8,7.4c-10.2,3.8-20,0.9-26.9-7.8c-5.5-7-7.5-15.1-8.1-23.8c-5.5,0-11.1,0-16.6,0    c-0.8,13.1,3.7,19.8,16.3,24.3c3.6,1.3,4.8,4.8,8.2,7.6c-8.5,2.9-15.3,1.4-21.4-3.3c-9.4-7.2-12.5-17.3-13-28.6    c-17,0-17,0-22.5,16.7c-20.2,60.5-40.4,120.9-60.5,181.3c-3.2,9.5-2.5,10.4,7.5,10.4c96.9,0,193.8,0,290.8,0    C453.4,485.5,454,484.6,450.9,475.2z M293.8,470.7c-39.7-0.1-79.4,0-119.2-0.1c-8.2,0-10.7-3.7-8.1-11.7    c14.6-44.2,29.4-88.4,43.9-132.6c1.3-3.8,3.1-4.8,6.9-4.8c21.4,0.2,42.7,0.1,64.1,0.1s42.8,0.1,64.1-0.1c4.8,0,5.8,0.8,4.2,5.7    c-15.2,45.2-30.2,90.4-45.2,135.7C302.8,468.3,299.5,470.7,293.8,470.7z M421.4,470.6c-15.1,0.1-30.2,0-45.3,0l0,0    c-15.1,0-30.2,0.1-45.3,0c-8.5-0.1-11.6-4-9-11.9c16.6-49.9,33.3-99.8,49.9-149.6c0.7-2.1,0.9-5.1,3.7-5.3    c3.6-0.2,3.5,3.3,4.2,5.5c16.7,49.9,33.3,99.8,49.8,149.8C432.2,467.1,429.8,470.5,421.4,470.6z M301.6,346.3    c-3.6,0.1-5.6,1.3-6.4,4.7c-0.5,2.2-1.5,4.4-2.1,6.6c-4,13.1-4.8,11.6,8.6,11.6c5.1-0.3,10.6,2,13-6.3    C319.7,345.6,320.2,345.9,301.6,346.3z M298.1,381.7c-13.1,0-13,0.1-17,11.8c-4.6,13.4-3.3,11.2,8.2,11.4c11,0,11,0,14.6-10.6    c0.4-1.1,0.8-2.2,1.1-3.3C308,381.7,308,381.7,298.1,381.7z M269.8,346.3c-6.4-0.3-9.4,1.8-10.6,7.6c-0.3,1.3-0.9,2.6-1.3,3.9    c-3.8,11.4-3.8,11.4,8.5,11.4c12.6-0.2,10.1,1.9,13.7-8.7C284.8,346.6,284.7,347,269.8,346.3z M261.3,381.7c-11.4,0-11.4,0-15,11    c-0.9,2.6-1.9,5.2-2.6,7.9c-0.5,2-0.3,4,2.3,4c6,0.1,12.4,1,18-0.5c4.2-1.2,4-7.3,5.4-11.4C273.3,381.7,273.2,381.7,261.3,381.7z     M258.5,416.9c-6.2-0.4-12.6-1.1-18.6,0.2c-4.2,0.9-3.7,6.8-5.1,10.6c-4.9,13.3-4.3,12.2,9.5,12.2c2.7-1.7,8.2,3,10.4-3.4    c1.7-5,3.4-10,5.1-15C260.4,419.6,260.9,417.1,258.5,416.9z M231.4,369.3c5.4-0.2,11,1.7,13.3-6.6c4.7-16.6,5.3-16.3-12-16.3    c-4.4,0-7,1.1-7.8,5.6c-0.4,2-1.4,3.9-2,5.9C219.1,369.3,219.1,369.3,231.4,369.3z M226.1,381.7c-11.1,0-11.1,0-14.6,10.6    c-0.9,2.6-1.9,5.2-2.6,7.9c-0.5,1.8-0.8,4.2,1.9,4.3c6,0.3,12.3,1.2,18-0.2c4.6-1.1,4-7.3,5.5-11.3    C238.2,381.7,238,381.7,226.1,381.7z M213.1,416.6c-2.7,1.9-8.3-3.1-10.7,2.9c-2.1,5.1-3.5,10.5-5.3,15.8c-0.7,2-0.7,4.2,1.7,4.3    c6.2,0.3,12.8,1.1,18.7-0.4c3.8-1,3.7-7,5-10.9C226.5,416.1,228.4,416.6,213.1,416.6z M213.1,416.6c-2.7,1.9-8.3-3.1-10.7,2.9    c-2.1,5.1-3.5,10.5-5.3,15.8c-0.7,2-0.7,4.2,1.7,4.3c6.2,0.3,12.8,1.1,18.7-0.4c3.8-1,3.7-7,5-10.9    C226.5,416.1,228.4,416.6,213.1,416.6z M226.1,381.7c-11.1,0-11.1,0-14.6,10.6c-0.9,2.6-1.9,5.2-2.6,7.9c-0.5,1.8-0.8,4.2,1.9,4.3    c6,0.3,12.3,1.2,18-0.2c4.6-1.1,4-7.3,5.5-11.3C238.2,381.7,238,381.7,226.1,381.7z M232.7,346.3c-4.4,0-7,1.1-7.8,5.6    c-0.4,2-1.4,3.9-2,5.9c-3.8,11.4-3.8,11.4,8.5,11.5c5.4-0.2,11,1.7,13.3-6.6C249.5,346.1,250,346.4,232.7,346.3z M258.5,416.9    c-6.2-0.4-12.6-1.1-18.6,0.2c-4.2,0.9-3.7,6.8-5.1,10.6c-4.9,13.3-4.3,12.2,9.5,12.2c2.7-1.7,8.2,3,10.4-3.4c1.7-5,3.4-10,5.1-15    C260.4,419.6,260.9,417.1,258.5,416.9z M261.3,381.7c-11.4,0-11.4,0-15,11c-0.9,2.6-1.9,5.2-2.6,7.9c-0.5,2-0.3,4,2.3,4    c6,0.1,12.4,1,18-0.5c4.2-1.2,4-7.3,5.4-11.4C273.3,381.7,273.2,381.7,261.3,381.7z M269.8,346.3c-6.4-0.3-9.4,1.8-10.6,7.6    c-0.3,1.3-0.9,2.6-1.3,3.9c-3.8,11.4-3.8,11.4,8.5,11.4c12.6-0.2,10.1,1.9,13.7-8.7C284.8,346.6,284.7,347,269.8,346.3z     M298.1,381.7c-13.1,0-13,0.1-17,11.8c-4.6,13.4-3.3,11.2,8.2,11.4c11,0,11,0,14.6-10.6c0.4-1.1,0.8-2.2,1.1-3.3    C308,381.7,308,381.7,298.1,381.7z M301.6,346.3c-3.6,0.1-5.6,1.3-6.4,4.7c-0.5,2.2-1.5,4.4-2.1,6.6c-4,13.1-4.8,11.6,8.6,11.6    c5.1-0.3,10.6,2,13-6.3C319.7,345.6,320.2,345.9,301.6,346.3z M301.6,346.3c-3.6,0.1-5.6,1.3-6.4,4.7c-0.5,2.2-1.5,4.4-2.1,6.6    c-4,13.1-4.8,11.6,8.6,11.6c5.1-0.3,10.6,2,13-6.3C319.7,345.6,320.2,345.9,301.6,346.3z M298.1,381.7c-13.1,0-13,0.1-17,11.8    c-4.6,13.4-3.3,11.2,8.2,11.4c11,0,11,0,14.6-10.6c0.4-1.1,0.8-2.2,1.1-3.3C308,381.7,308,381.7,298.1,381.7z M292.3,277.1    L292.3,277.1C292.4,277.1,292.4,277.1,292.3,277.1C292.4,277.1,292.4,277.1,292.3,277.1z M269.8,346.3c-6.4-0.3-9.4,1.8-10.6,7.6    c-0.3,1.3-0.9,2.6-1.3,3.9c-3.8,11.4-3.8,11.4,8.5,11.4c12.6-0.2,10.1,1.9,13.7-8.7C284.8,346.6,284.7,347,269.8,346.3z     M261.3,381.7c-11.4,0-11.4,0-15,11c-0.9,2.6-1.9,5.2-2.6,7.9c-0.5,2-0.3,4,2.3,4c6,0.1,12.4,1,18-0.5c4.2-1.2,4-7.3,5.4-11.4    C273.3,381.7,273.2,381.7,261.3,381.7z M258.5,416.9c-6.2-0.4-12.6-1.1-18.6,0.2c-4.2,0.9-3.7,6.8-5.1,10.6    c-4.9,13.3-4.3,12.2,9.5,12.2c2.7-1.7,8.2,3,10.4-3.4c1.7-5,3.4-10,5.1-15C260.4,419.6,260.9,417.1,258.5,416.9z M232.7,346.3    c-4.4,0-7,1.1-7.8,5.6c-0.4,2-1.4,3.9-2,5.9c-3.8,11.4-3.8,11.4,8.5,11.5c5.4-0.2,11,1.7,13.3-6.6    C249.5,346.1,250,346.4,232.7,346.3z M226.1,381.7c-11.1,0-11.1,0-14.6,10.6c-0.9,2.6-1.9,5.2-2.6,7.9c-0.5,1.8-0.8,4.2,1.9,4.3    c6,0.3,12.3,1.2,18-0.2c4.6-1.1,4-7.3,5.5-11.3C238.2,381.7,238,381.7,226.1,381.7z M213.1,416.6c-2.7,1.9-8.3-3.1-10.7,2.9    c-2.1,5.1-3.5,10.5-5.3,15.8c-0.7,2-0.7,4.2,1.7,4.3c6.2,0.3,12.8,1.1,18.7-0.4c3.8-1,3.7-7,5-10.9    C226.5,416.1,228.4,416.6,213.1,416.6z M213.1,416.6c-2.7,1.9-8.3-3.1-10.7,2.9c-2.1,5.1-3.5,10.5-5.3,15.8    c-0.7,2-0.7,4.2,1.7,4.3c6.2,0.3,12.8,1.1,18.7-0.4c3.8-1,3.7-7,5-10.9C226.5,416.1,228.4,416.6,213.1,416.6z M226.1,381.7    c-11.1,0-11.1,0-14.6,10.6c-0.9,2.6-1.9,5.2-2.6,7.9c-0.5,1.8-0.8,4.2,1.9,4.3c6,0.3,12.3,1.2,18-0.2c4.6-1.1,4-7.3,5.5-11.3    C238.2,381.7,238,381.7,226.1,381.7z M232.7,346.3c-4.4,0-7,1.1-7.8,5.6c-0.4,2-1.4,3.9-2,5.9c-3.8,11.4-3.8,11.4,8.5,11.5    c5.4-0.2,11,1.7,13.3-6.6C249.5,346.1,250,346.4,232.7,346.3z M258.5,416.9c-6.2-0.4-12.6-1.1-18.6,0.2c-4.2,0.9-3.7,6.8-5.1,10.6    c-4.9,13.3-4.3,12.2,9.5,12.2c2.7-1.7,8.2,3,10.4-3.4c1.7-5,3.4-10,5.1-15C260.4,419.6,260.9,417.1,258.5,416.9z M261.3,381.7    c-11.4,0-11.4,0-15,11c-0.9,2.6-1.9,5.2-2.6,7.9c-0.5,2-0.3,4,2.3,4c6,0.1,12.4,1,18-0.5c4.2-1.2,4-7.3,5.4-11.4    C273.3,381.7,273.2,381.7,261.3,381.7z M269.8,346.3c-6.4-0.3-9.4,1.8-10.6,7.6c-0.3,1.3-0.9,2.6-1.3,3.9    c-3.8,11.4-3.8,11.4,8.5,11.4c12.6-0.2,10.1,1.9,13.7-8.7C284.8,346.6,284.7,347,269.8,346.3z M298.1,381.7    c-13.1,0-13,0.1-17,11.8c-4.6,13.4-3.3,11.2,8.2,11.4c11,0,11,0,14.6-10.6c0.4-1.1,0.8-2.2,1.1-3.3    C308,381.7,308,381.7,298.1,381.7z M301.6,346.3c-3.6,0.1-5.6,1.3-6.4,4.7c-0.5,2.2-1.5,4.4-2.1,6.6c-4,13.1-4.8,11.6,8.6,11.6    c5.1-0.3,10.6,2,13-6.3C319.7,345.6,320.2,345.9,301.6,346.3z M301.6,346.3c-3.6,0.1-5.6,1.3-6.4,4.7c-0.5,2.2-1.5,4.4-2.1,6.6    c-4,13.1-4.8,11.6,8.6,11.6c5.1-0.3,10.6,2,13-6.3C319.7,345.6,320.2,345.9,301.6,346.3z M298.1,381.7c-13.1,0-13,0.1-17,11.8    c-4.6,13.4-3.3,11.2,8.2,11.4c11,0,11,0,14.6-10.6c0.4-1.1,0.8-2.2,1.1-3.3C308,381.7,308,381.7,298.1,381.7z M292.3,277.1    L292.3,277.1C292.4,277.1,292.4,277.1,292.3,277.1C292.4,277.1,292.4,277.1,292.3,277.1z M269.8,346.3c-6.4-0.3-9.4,1.8-10.6,7.6    c-0.3,1.3-0.9,2.6-1.3,3.9c-3.8,11.4-3.8,11.4,8.5,11.4c12.6-0.2,10.1,1.9,13.7-8.7C284.8,346.6,284.7,347,269.8,346.3z     M261.3,381.7c-11.4,0-11.4,0-15,11c-0.9,2.6-1.9,5.2-2.6,7.9c-0.5,2-0.3,4,2.3,4c6,0.1,12.4,1,18-0.5c4.2-1.2,4-7.3,5.4-11.4    C273.3,381.7,273.2,381.7,261.3,381.7z M258.5,416.9c-6.2-0.4-12.6-1.1-18.6,0.2c-4.2,0.9-3.7,6.8-5.1,10.6    c-4.9,13.3-4.3,12.2,9.5,12.2c2.7-1.7,8.2,3,10.4-3.4c1.7-5,3.4-10,5.1-15C260.4,419.6,260.9,417.1,258.5,416.9z M232.7,346.3    c-4.4,0-7,1.1-7.8,5.6c-0.4,2-1.4,3.9-2,5.9c-3.8,11.4-3.8,11.4,8.5,11.5c5.4-0.2,11,1.7,13.3-6.6    C249.5,346.1,250,346.4,232.7,346.3z M226.1,381.7c-11.1,0-11.1,0-14.6,10.6c-0.9,2.6-1.9,5.2-2.6,7.9c-0.5,1.8-0.8,4.2,1.9,4.3    c6,0.3,12.3,1.2,18-0.2c4.6-1.1,4-7.3,5.5-11.3C238.2,381.7,238,381.7,226.1,381.7z M213.1,416.6c-2.7,1.9-8.3-3.1-10.7,2.9    c-2.1,5.1-3.5,10.5-5.3,15.8c-0.7,2-0.7,4.2,1.7,4.3c6.2,0.3,12.8,1.1,18.7-0.4c3.8-1,3.7-7,5-10.9    C226.5,416.1,228.4,416.6,213.1,416.6z M213.1,416.6c-2.7,1.9-8.3-3.1-10.7,2.9c-2.1,5.1-3.5,10.5-5.3,15.8    c-0.7,2-0.7,4.2,1.7,4.3c6.2,0.3,12.8,1.1,18.7-0.4c3.8-1,3.7-7,5-10.9C226.5,416.1,228.4,416.6,213.1,416.6z M226.1,381.7    c-11.1,0-11.1,0-14.6,10.6c-0.9,2.6-1.9,5.2-2.6,7.9c-0.5,1.8-0.8,4.2,1.9,4.3c6,0.3,12.3,1.2,18-0.2c4.6-1.1,4-7.3,5.5-11.3    C238.2,381.7,238,381.7,226.1,381.7z M232.7,346.3c-4.4,0-7,1.1-7.8,5.6c-0.4,2-1.4,3.9-2,5.9c-3.8,11.4-3.8,11.4,8.5,11.5    c5.4-0.2,11,1.7,13.3-6.6C249.5,346.1,250,346.4,232.7,346.3z M258.5,416.9c-6.2-0.4-12.6-1.1-18.6,0.2c-4.2,0.9-3.7,6.8-5.1,10.6    c-4.9,13.3-4.3,12.2,9.5,12.2c2.7-1.7,8.2,3,10.4-3.4c1.7-5,3.4-10,5.1-15C260.4,419.6,260.9,417.1,258.5,416.9z M261.3,381.7    c-11.4,0-11.4,0-15,11c-0.9,2.6-1.9,5.2-2.6,7.9c-0.5,2-0.3,4,2.3,4c6,0.1,12.4,1,18-0.5c4.2-1.2,4-7.3,5.4-11.4    C273.3,381.7,273.2,381.7,261.3,381.7z M269.8,346.3c-6.4-0.3-9.4,1.8-10.6,7.6c-0.3,1.3-0.9,2.6-1.3,3.9    c-3.8,11.4-3.8,11.4,8.5,11.4c12.6-0.2,10.1,1.9,13.7-8.7C284.8,346.6,284.7,347,269.8,346.3z M298.1,381.7    c-13.1,0-13,0.1-17,11.8c-4.6,13.4-3.3,11.2,8.2,11.4c11,0,11,0,14.6-10.6c0.4-1.1,0.8-2.2,1.1-3.3    C308,381.7,308,381.7,298.1,381.7z M301.6,346.3c-3.6,0.1-5.6,1.3-6.4,4.7c-0.5,2.2-1.5,4.4-2.1,6.6c-4,13.1-4.8,11.6,8.6,11.6    c5.1-0.3,10.6,2,13-6.3C319.7,345.6,320.2,345.9,301.6,346.3z M301.6,346.3c-3.6,0.1-5.6,1.3-6.4,4.7c-0.5,2.2-1.5,4.4-2.1,6.6    c-4,13.1-4.8,11.6,8.6,11.6c5.1-0.3,10.6,2,13-6.3C319.7,345.6,320.2,345.9,301.6,346.3z M298.1,381.7c-13.1,0-13,0.1-17,11.8    c-4.6,13.4-3.3,11.2,8.2,11.4c11,0,11,0,14.6-10.6c0.4-1.1,0.8-2.2,1.1-3.3C308,381.7,308,381.7,298.1,381.7z M292.3,277.1    L292.3,277.1C292.4,277.1,292.4,277.1,292.3,277.1C292.4,277.1,292.4,277.1,292.3,277.1z M269.8,346.3c-6.4-0.3-9.4,1.8-10.6,7.6    c-0.3,1.3-0.9,2.6-1.3,3.9c-3.8,11.4-3.8,11.4,8.5,11.4c12.6-0.2,10.1,1.9,13.7-8.7C284.8,346.6,284.7,347,269.8,346.3z     M261.3,381.7c-11.4,0-11.4,0-15,11c-0.9,2.6-1.9,5.2-2.6,7.9c-0.5,2-0.3,4,2.3,4c6,0.1,12.4,1,18-0.5c4.2-1.2,4-7.3,5.4-11.4    C273.3,381.7,273.2,381.7,261.3,381.7z M258.5,416.9c-6.2-0.4-12.6-1.1-18.6,0.2c-4.2,0.9-3.7,6.8-5.1,10.6    c-4.9,13.3-4.3,12.2,9.5,12.2c2.7-1.7,8.2,3,10.4-3.4c1.7-5,3.4-10,5.1-15C260.4,419.6,260.9,417.1,258.5,416.9z M232.7,346.3    c-4.4,0-7,1.1-7.8,5.6c-0.4,2-1.4,3.9-2,5.9c-3.8,11.4-3.8,11.4,8.5,11.5c5.4-0.2,11,1.7,13.3-6.6    C249.5,346.1,250,346.4,232.7,346.3z M226.1,381.7c-11.1,0-11.1,0-14.6,10.6c-0.9,2.6-1.9,5.2-2.6,7.9c-0.5,1.8-0.8,4.2,1.9,4.3    c6,0.3,12.3,1.2,18-0.2c4.6-1.1,4-7.3,5.5-11.3C238.2,381.7,238,381.7,226.1,381.7z M213.1,416.6c-2.7,1.9-8.3-3.1-10.7,2.9    c-2.1,5.1-3.5,10.5-5.3,15.8c-0.7,2-0.7,4.2,1.7,4.3c6.2,0.3,12.8,1.1,18.7-0.4c3.8-1,3.7-7,5-10.9    C226.5,416.1,228.4,416.6,213.1,416.6z M213.1,416.6c-2.7,1.9-8.3-3.1-10.7,2.9c-2.1,5.1-3.5,10.5-5.3,15.8    c-0.7,2-0.7,4.2,1.7,4.3c6.2,0.3,12.8,1.1,18.7-0.4c3.8-1,3.7-7,5-10.9C226.5,416.1,228.4,416.6,213.1,416.6z M226.1,381.7    c-11.1,0-11.1,0-14.6,10.6c-0.9,2.6-1.9,5.2-2.6,7.9c-0.5,1.8-0.8,4.2,1.9,4.3c6,0.3,12.3,1.2,18-0.2c4.6-1.1,4-7.3,5.5-11.3    C238.2,381.7,238,381.7,226.1,381.7z M232.7,346.3c-4.4,0-7,1.1-7.8,5.6c-0.4,2-1.4,3.9-2,5.9c-3.8,11.4-3.8,11.4,8.5,11.5    c5.4-0.2,11,1.7,13.3-6.6C249.5,346.1,250,346.4,232.7,346.3z M258.5,416.9c-6.2-0.4-12.6-1.1-18.6,0.2c-4.2,0.9-3.7,6.8-5.1,10.6    c-4.9,13.3-4.3,12.2,9.5,12.2c2.7-1.7,8.2,3,10.4-3.4c1.7-5,3.4-10,5.1-15C260.4,419.6,260.9,417.1,258.5,416.9z M261.3,381.7    c-11.4,0-11.4,0-15,11c-0.9,2.6-1.9,5.2-2.6,7.9c-0.5,2-0.3,4,2.3,4c6,0.1,12.4,1,18-0.5c4.2-1.2,4-7.3,5.4-11.4    C273.3,381.7,273.2,381.7,261.3,381.7z M269.8,346.3c-6.4-0.3-9.4,1.8-10.6,7.6c-0.3,1.3-0.9,2.6-1.3,3.9    c-3.8,11.4-3.8,11.4,8.5,11.4c12.6-0.2,10.1,1.9,13.7-8.7C284.8,346.6,284.7,347,269.8,346.3z M298.1,381.7    c-13.1,0-13,0.1-17,11.8c-4.6,13.4-3.3,11.2,8.2,11.4c11,0,11,0,14.6-10.6c0.4-1.1,0.8-2.2,1.1-3.3    C308,381.7,308,381.7,298.1,381.7z M301.6,346.3c-3.6,0.1-5.6,1.3-6.4,4.7c-0.5,2.2-1.5,4.4-2.1,6.6c-4,13.1-4.8,11.6,8.6,11.6    c5.1-0.3,10.6,2,13-6.3C319.7,345.6,320.2,345.9,301.6,346.3z M301.6,346.3c-3.6,0.1-5.6,1.3-6.4,4.7c-0.5,2.2-1.5,4.4-2.1,6.6    c-4,13.1-4.8,11.6,8.6,11.6c5.1-0.3,10.6,2,13-6.3C319.7,345.6,320.2,345.9,301.6,346.3z M298.1,381.7c-13.1,0-13,0.1-17,11.8    c-4.6,13.4-3.3,11.2,8.2,11.4c11,0,11,0,14.6-10.6c0.4-1.1,0.8-2.2,1.1-3.3C308,381.7,308,381.7,298.1,381.7z M292.3,277.1    L292.3,277.1C292.4,277.1,292.4,277.1,292.3,277.1C292.4,277.1,292.4,277.1,292.3,277.1z M269.8,346.3c-6.4-0.3-9.4,1.8-10.6,7.6    c-0.3,1.3-0.9,2.6-1.3,3.9c-3.8,11.4-3.8,11.4,8.5,11.4c12.6-0.2,10.1,1.9,13.7-8.7C284.8,346.6,284.7,347,269.8,346.3z     M261.3,381.7c-11.4,0-11.4,0-15,11c-0.9,2.6-1.9,5.2-2.6,7.9c-0.5,2-0.3,4,2.3,4c6,0.1,12.4,1,18-0.5c4.2-1.2,4-7.3,5.4-11.4    C273.3,381.7,273.2,381.7,261.3,381.7z M258.5,416.9c-6.2-0.4-12.6-1.1-18.6,0.2c-4.2,0.9-3.7,6.8-5.1,10.6    c-4.9,13.3-4.3,12.2,9.5,12.2c2.7-1.7,8.2,3,10.4-3.4c1.7-5,3.4-10,5.1-15C260.4,419.6,260.9,417.1,258.5,416.9z M232.7,346.3    c-4.4,0-7,1.1-7.8,5.6c-0.4,2-1.4,3.9-2,5.9c-3.8,11.4-3.8,11.4,8.5,11.5c5.4-0.2,11,1.7,13.3-6.6    C249.5,346.1,250,346.4,232.7,346.3z M226.1,381.7c-11.1,0-11.1,0-14.6,10.6c-0.9,2.6-1.9,5.2-2.6,7.9c-0.5,1.8-0.8,4.2,1.9,4.3    c6,0.3,12.3,1.2,18-0.2c4.6-1.1,4-7.3,5.5-11.3C238.2,381.7,238,381.7,226.1,381.7z M213.1,416.6c-2.7,1.9-8.3-3.1-10.7,2.9    c-2.1,5.1-3.5,10.5-5.3,15.8c-0.7,2-0.7,4.2,1.7,4.3c6.2,0.3,12.8,1.1,18.7-0.4c3.8-1,3.7-7,5-10.9    C226.5,416.1,228.4,416.6,213.1,416.6z M213.1,416.6c-2.7,1.9-8.3-3.1-10.7,2.9c-2.1,5.1-3.5,10.5-5.3,15.8    c-0.7,2-0.7,4.2,1.7,4.3c6.2,0.3,12.8,1.1,18.7-0.4c3.8-1,3.7-7,5-10.9C226.5,416.1,228.4,416.6,213.1,416.6z M226.1,381.7    c-11.1,0-11.1,0-14.6,10.6c-0.9,2.6-1.9,5.2-2.6,7.9c-0.5,1.8-0.8,4.2,1.9,4.3c6,0.3,12.3,1.2,18-0.2c4.6-1.1,4-7.3,5.5-11.3    C238.2,381.7,238,381.7,226.1,381.7z M232.7,346.3c-4.4,0-7,1.1-7.8,5.6c-0.4,2-1.4,3.9-2,5.9c-3.8,11.4-3.8,11.4,8.5,11.5    c5.4-0.2,11,1.7,13.3-6.6C249.5,346.1,250,346.4,232.7,346.3z M258.5,416.9c-6.2-0.4-12.6-1.1-18.6,0.2c-4.2,0.9-3.7,6.8-5.1,10.6    c-4.9,13.3-4.3,12.2,9.5,12.2c2.7-1.7,8.2,3,10.4-3.4c1.7-5,3.4-10,5.1-15C260.4,419.6,260.9,417.1,258.5,416.9z M261.3,381.7    c-11.4,0-11.4,0-15,11c-0.9,2.6-1.9,5.2-2.6,7.9c-0.5,2-0.3,4,2.3,4c6,0.1,12.4,1,18-0.5c4.2-1.2,4-7.3,5.4-11.4    C273.3,381.7,273.2,381.7,261.3,381.7z M269.8,346.3c-6.4-0.3-9.4,1.8-10.6,7.6c-0.3,1.3-0.9,2.6-1.3,3.9    c-3.8,11.4-3.8,11.4,8.5,11.4c12.6-0.2,10.1,1.9,13.7-8.7C284.8,346.6,284.7,347,269.8,346.3z M298.1,381.7    c-13.1,0-13,0.1-17,11.8c-4.6,13.4-3.3,11.2,8.2,11.4c11,0,11,0,14.6-10.6c0.4-1.1,0.8-2.2,1.1-3.3    C308,381.7,308,381.7,298.1,381.7z M301.6,346.3c-3.6,0.1-5.6,1.3-6.4,4.7c-0.5,2.2-1.5,4.4-2.1,6.6c-4,13.1-4.8,11.6,8.6,11.6    c5.1-0.3,10.6,2,13-6.3C319.7,345.6,320.2,345.9,301.6,346.3z M301.6,346.3c-3.6,0.1-5.6,1.3-6.4,4.7c-0.5,2.2-1.5,4.4-2.1,6.6    c-4,13.1-4.8,11.6,8.6,11.6c5.1-0.3,10.6,2,13-6.3C319.7,345.6,320.2,345.9,301.6,346.3z M298.1,381.7c-13.1,0-13,0.1-17,11.8    c-4.6,13.4-3.3,11.2,8.2,11.4c11,0,11,0,14.6-10.6c0.4-1.1,0.8-2.2,1.1-3.3C308,381.7,308,381.7,298.1,381.7z M269.8,346.3    c-6.4-0.3-9.4,1.8-10.6,7.6c-0.3,1.3-0.9,2.6-1.3,3.9c-3.8,11.4-3.8,11.4,8.5,11.4c12.6-0.2,10.1,1.9,13.7-8.7    C284.8,346.6,284.7,347,269.8,346.3z M261.3,381.7c-11.4,0-11.4,0-15,11c-0.9,2.6-1.9,5.2-2.6,7.9c-0.5,2-0.3,4,2.3,4    c6,0.1,12.4,1,18-0.5c4.2-1.2,4-7.3,5.4-11.4C273.3,381.7,273.2,381.7,261.3,381.7z M258.5,416.9c-6.2-0.4-12.6-1.1-18.6,0.2    c-4.2,0.9-3.7,6.8-5.1,10.6c-4.9,13.3-4.3,12.2,9.5,12.2c2.7-1.7,8.2,3,10.4-3.4c1.7-5,3.4-10,5.1-15    C260.4,419.6,260.9,417.1,258.5,416.9z M232.7,346.3c-4.4,0-7,1.1-7.8,5.6c-0.4,2-1.4,3.9-2,5.9c-3.8,11.4-3.8,11.4,8.5,11.5    c5.4-0.2,11,1.7,13.3-6.6C249.5,346.1,250,346.4,232.7,346.3z M226.1,381.7c-11.1,0-11.1,0-14.6,10.6c-0.9,2.6-1.9,5.2-2.6,7.9    c-0.5,1.8-0.8,4.2,1.9,4.3c6,0.3,12.3,1.2,18-0.2c4.6-1.1,4-7.3,5.5-11.3C238.2,381.7,238,381.7,226.1,381.7z M213.1,416.6    c-2.7,1.9-8.3-3.1-10.7,2.9c-2.1,5.1-3.5,10.5-5.3,15.8c-0.7,2-0.7,4.2,1.7,4.3c6.2,0.3,12.8,1.1,18.7-0.4c3.8-1,3.7-7,5-10.9    C226.5,416.1,228.4,416.6,213.1,416.6z M213.1,416.6c-2.7,1.9-8.3-3.1-10.7,2.9c-2.1,5.1-3.5,10.5-5.3,15.8    c-0.7,2-0.7,4.2,1.7,4.3c6.2,0.3,12.8,1.1,18.7-0.4c3.8-1,3.7-7,5-10.9C226.5,416.1,228.4,416.6,213.1,416.6z M226.1,381.7    c-11.1,0-11.1,0-14.6,10.6c-0.9,2.6-1.9,5.2-2.6,7.9c-0.5,1.8-0.8,4.2,1.9,4.3c6,0.3,12.3,1.2,18-0.2c4.6-1.1,4-7.3,5.5-11.3    C238.2,381.7,238,381.7,226.1,381.7z M232.7,346.3c-4.4,0-7,1.1-7.8,5.6c-0.4,2-1.4,3.9-2,5.9c-3.8,11.4-3.8,11.4,8.5,11.5    c5.4-0.2,11,1.7,13.3-6.6C249.5,346.1,250,346.4,232.7,346.3z M258.5,416.9c-6.2-0.4-12.6-1.1-18.6,0.2c-4.2,0.9-3.7,6.8-5.1,10.6    c-4.9,13.3-4.3,12.2,9.5,12.2c2.7-1.7,8.2,3,10.4-3.4c1.7-5,3.4-10,5.1-15C260.4,419.6,260.9,417.1,258.5,416.9z M261.3,381.7    c-11.4,0-11.4,0-15,11c-0.9,2.6-1.9,5.2-2.6,7.9c-0.5,2-0.3,4,2.3,4c6,0.1,12.4,1,18-0.5c4.2-1.2,4-7.3,5.4-11.4    C273.3,381.7,273.2,381.7,261.3,381.7z M269.8,346.3c-6.4-0.3-9.4,1.8-10.6,7.6c-0.3,1.3-0.9,2.6-1.3,3.9    c-3.8,11.4-3.8,11.4,8.5,11.4c12.6-0.2,10.1,1.9,13.7-8.7C284.8,346.6,284.7,347,269.8,346.3z M298.1,381.7    c-13.1,0-13,0.1-17,11.8c-4.6,13.4-3.3,11.2,8.2,11.4c11,0,11,0,14.6-10.6c0.4-1.1,0.8-2.2,1.1-3.3    C308,381.7,308,381.7,298.1,381.7z M301.6,346.3c-3.6,0.1-5.6,1.3-6.4,4.7c-0.5,2.2-1.5,4.4-2.1,6.6c-4,13.1-4.8,11.6,8.6,11.6    c5.1-0.3,10.6,2,13-6.3C319.7,345.6,320.2,345.9,301.6,346.3z M301.6,346.3c-3.6,0.1-5.6,1.3-6.4,4.7c-0.5,2.2-1.5,4.4-2.1,6.6    c-4,13.1-4.8,11.6,8.6,11.6c5.1-0.3,10.6,2,13-6.3C319.7,345.6,320.2,345.9,301.6,346.3z M298.1,381.7c-13.1,0-13,0.1-17,11.8    c-4.6,13.4-3.3,11.2,8.2,11.4c11,0,11,0,14.6-10.6c0.4-1.1,0.8-2.2,1.1-3.3C308,381.7,308,381.7,298.1,381.7z M269.8,346.3    c-6.4-0.3-9.4,1.8-10.6,7.6c-0.3,1.3-0.9,2.6-1.3,3.9c-3.8,11.4-3.8,11.4,8.5,11.4c12.6-0.2,10.1,1.9,13.7-8.7    C284.8,346.6,284.7,347,269.8,346.3z M261.3,381.7c-11.4,0-11.4,0-15,11c-0.9,2.6-1.9,5.2-2.6,7.9c-0.5,2-0.3,4,2.3,4    c6,0.1,12.4,1,18-0.5c4.2-1.2,4-7.3,5.4-11.4C273.3,381.7,273.2,381.7,261.3,381.7z M258.5,416.9c-6.2-0.4-12.6-1.1-18.6,0.2    c-4.2,0.9-3.7,6.8-5.1,10.6c-4.9,13.3-4.3,12.2,9.5,12.2c2.7-1.7,8.2,3,10.4-3.4c1.7-5,3.4-10,5.1-15    C260.4,419.6,260.9,417.1,258.5,416.9z M232.7,346.3c-4.4,0-7,1.1-7.8,5.6c-0.4,2-1.4,3.9-2,5.9c-3.8,11.4-3.8,11.4,8.5,11.5    c5.4-0.2,11,1.7,13.3-6.6C249.5,346.1,250,346.4,232.7,346.3z M226.1,381.7c-11.1,0-11.1,0-14.6,10.6c-0.9,2.6-1.9,5.2-2.6,7.9    c-0.5,1.8-0.8,4.2,1.9,4.3c6,0.3,12.3,1.2,18-0.2c4.6-1.1,4-7.3,5.5-11.3C238.2,381.7,238,381.7,226.1,381.7z M213.1,416.6    c-2.7,1.9-8.3-3.1-10.7,2.9c-2.1,5.1-3.5,10.5-5.3,15.8c-0.7,2-0.7,4.2,1.7,4.3c6.2,0.3,12.8,1.1,18.7-0.4c3.8-1,3.7-7,5-10.9    C226.5,416.1,228.4,416.6,213.1,416.6z M213.1,416.6c-2.7,1.9-8.3-3.1-10.7,2.9c-2.1,5.1-3.5,10.5-5.3,15.8    c-0.7,2-0.7,4.2,1.7,4.3c6.2,0.3,12.8,1.1,18.7-0.4c3.8-1,3.7-7,5-10.9C226.5,416.1,228.4,416.6,213.1,416.6z M226.1,381.7    c-11.1,0-11.1,0-14.6,10.6c-0.9,2.6-1.9,5.2-2.6,7.9c-0.5,1.8-0.8,4.2,1.9,4.3c6,0.3,12.3,1.2,18-0.2c4.6-1.1,4-7.3,5.5-11.3    C238.2,381.7,238,381.7,226.1,381.7z M232.7,346.3c-4.4,0-7,1.1-7.8,5.6c-0.4,2-1.4,3.9-2,5.9c-3.8,11.4-3.8,11.4,8.5,11.5    c5.4-0.2,11,1.7,13.3-6.6C249.5,346.1,250,346.4,232.7,346.3z M258.5,416.9c-6.2-0.4-12.6-1.1-18.6,0.2c-4.2,0.9-3.7,6.8-5.1,10.6    c-4.9,13.3-4.3,12.2,9.5,12.2c2.7-1.7,8.2,3,10.4-3.4c1.7-5,3.4-10,5.1-15C260.4,419.6,260.9,417.1,258.5,416.9z M261.3,381.7    c-11.4,0-11.4,0-15,11c-0.9,2.6-1.9,5.2-2.6,7.9c-0.5,2-0.3,4,2.3,4c6,0.1,12.4,1,18-0.5c4.2-1.2,4-7.3,5.4-11.4    C273.3,381.7,273.2,381.7,261.3,381.7z M269.8,346.3c-6.4-0.3-9.4,1.8-10.6,7.6c-0.3,1.3-0.9,2.6-1.3,3.9    c-3.8,11.4-3.8,11.4,8.5,11.4c12.6-0.2,10.1,1.9,13.7-8.7C284.8,346.6,284.7,347,269.8,346.3z M298.1,381.7    c-13.1,0-13,0.1-17,11.8c-4.6,13.4-3.3,11.2,8.2,11.4c11,0,11,0,14.6-10.6c0.4-1.1,0.8-2.2,1.1-3.3    C308,381.7,308,381.7,298.1,381.7z M301.6,346.3c-3.6,0.1-5.6,1.3-6.4,4.7c-0.5,2.2-1.5,4.4-2.1,6.6c-4,13.1-4.8,11.6,8.6,11.6    c5.1-0.3,10.6,2,13-6.3C319.7,345.6,320.2,345.9,301.6,346.3z M301.6,346.3c-3.6,0.1-5.6,1.3-6.4,4.7c-0.5,2.2-1.5,4.4-2.1,6.6    c-4,13.1-4.8,11.6,8.6,11.6c5.1-0.3,10.6,2,13-6.3C319.7,345.6,320.2,345.9,301.6,346.3z M298.1,381.7c-13.1,0-13,0.1-17,11.8    c-4.6,13.4-3.3,11.2,8.2,11.4c11,0,11,0,14.6-10.6c0.4-1.1,0.8-2.2,1.1-3.3C308,381.7,308,381.7,298.1,381.7z M269.8,346.3    c-6.4-0.3-9.4,1.8-10.6,7.6c-0.3,1.3-0.9,2.6-1.3,3.9c-3.8,11.4-3.8,11.4,8.5,11.4c12.6-0.2,10.1,1.9,13.7-8.7    C284.8,346.6,284.7,347,269.8,346.3z M261.3,381.7c-11.4,0-11.4,0-15,11c-0.9,2.6-1.9,5.2-2.6,7.9c-0.5,2-0.3,4,2.3,4    c6,0.1,12.4,1,18-0.5c4.2-1.2,4-7.3,5.4-11.4C273.3,381.7,273.2,381.7,261.3,381.7z M258.5,416.9c-6.2-0.4-12.6-1.1-18.6,0.2    c-4.2,0.9-3.7,6.8-5.1,10.6c-4.9,13.3-4.3,12.2,9.5,12.2c2.7-1.7,8.2,3,10.4-3.4c1.7-5,3.4-10,5.1-15    C260.4,419.6,260.9,417.1,258.5,416.9z M232.7,346.3c-4.4,0-7,1.1-7.8,5.6c-0.4,2-1.4,3.9-2,5.9c-3.8,11.4-3.8,11.4,8.5,11.5    c5.4-0.2,11,1.7,13.3-6.6C249.5,346.1,250,346.4,232.7,346.3z M226.1,381.7c-11.1,0-11.1,0-14.6,10.6c-0.9,2.6-1.9,5.2-2.6,7.9    c-0.5,1.8-0.8,4.2,1.9,4.3c6,0.3,12.3,1.2,18-0.2c4.6-1.1,4-7.3,5.5-11.3C238.2,381.7,238,381.7,226.1,381.7z M213.1,416.6    c-2.7,1.9-8.3-3.1-10.7,2.9c-2.1,5.1-3.5,10.5-5.3,15.8c-0.7,2-0.7,4.2,1.7,4.3c6.2,0.3,12.8,1.1,18.7-0.4c3.8-1,3.7-7,5-10.9    C226.5,416.1,228.4,416.6,213.1,416.6z M213.1,416.6c-2.7,1.9-8.3-3.1-10.7,2.9c-2.1,5.1-3.5,10.5-5.3,15.8    c-0.7,2-0.7,4.2,1.7,4.3c6.2,0.3,12.8,1.1,18.7-0.4c3.8-1,3.7-7,5-10.9C226.5,416.1,228.4,416.6,213.1,416.6z M226.1,381.7    c-11.1,0-11.1,0-14.6,10.6c-0.9,2.6-1.9,5.2-2.6,7.9c-0.5,1.8-0.8,4.2,1.9,4.3c6,0.3,12.3,1.2,18-0.2c4.6-1.1,4-7.3,5.5-11.3    C238.2,381.7,238,381.7,226.1,381.7z M232.7,346.3c-4.4,0-7,1.1-7.8,5.6c-0.4,2-1.4,3.9-2,5.9c-3.8,11.4-3.8,11.4,8.5,11.5    c5.4-0.2,11,1.7,13.3-6.6C249.5,346.1,250,346.4,232.7,346.3z M258.5,416.9c-6.2-0.4-12.6-1.1-18.6,0.2c-4.2,0.9-3.7,6.8-5.1,10.6    c-4.9,13.3-4.3,12.2,9.5,12.2c2.7-1.7,8.2,3,10.4-3.4c1.7-5,3.4-10,5.1-15C260.4,419.6,260.9,417.1,258.5,416.9z M261.3,381.7    c-11.4,0-11.4,0-15,11c-0.9,2.6-1.9,5.2-2.6,7.9c-0.5,2-0.3,4,2.3,4c6,0.1,12.4,1,18-0.5c4.2-1.2,4-7.3,5.4-11.4    C273.3,381.7,273.2,381.7,261.3,381.7z M269.8,346.3c-6.4-0.3-9.4,1.8-10.6,7.6c-0.3,1.3-0.9,2.6-1.3,3.9    c-3.8,11.4-3.8,11.4,8.5,11.4c12.6-0.2,10.1,1.9,13.7-8.7C284.8,346.6,284.7,347,269.8,346.3z M298.1,381.7    c-13.1,0-13,0.1-17,11.8c-4.6,13.4-3.3,11.2,8.2,11.4c11,0,11,0,14.6-10.6c0.4-1.1,0.8-2.2,1.1-3.3    C308,381.7,308,381.7,298.1,381.7z M301.6,346.3c-3.6,0.1-5.6,1.3-6.4,4.7c-0.5,2.2-1.5,4.4-2.1,6.6c-4,13.1-4.8,11.6,8.6,11.6    c5.1-0.3,10.6,2,13-6.3C319.7,345.6,320.2,345.9,301.6,346.3z M301.6,346.3c-3.6,0.1-5.6,1.3-6.4,4.7c-0.5,2.2-1.5,4.4-2.1,6.6    c-4,13.1-4.8,11.6,8.6,11.6c5.1-0.3,10.6,2,13-6.3C319.7,345.6,320.2,345.9,301.6,346.3z M298.1,381.7c-13.1,0-13,0.1-17,11.8    c-4.6,13.4-3.3,11.2,8.2,11.4c11,0,11,0,14.6-10.6c0.4-1.1,0.8-2.2,1.1-3.3C308,381.7,308,381.7,298.1,381.7z M269.8,346.3    c-6.4-0.3-9.4,1.8-10.6,7.6c-0.3,1.3-0.9,2.6-1.3,3.9c-3.8,11.4-3.8,11.4,8.5,11.4c12.6-0.2,10.1,1.9,13.7-8.7    C284.8,346.6,284.7,347,269.8,346.3z M261.3,381.7c-11.4,0-11.4,0-15,11c-0.9,2.6-1.9,5.2-2.6,7.9c-0.5,2-0.3,4,2.3,4    c6,0.1,12.4,1,18-0.5c4.2-1.2,4-7.3,5.4-11.4C273.3,381.7,273.2,381.7,261.3,381.7z M258.5,416.9c-6.2-0.4-12.6-1.1-18.6,0.2    c-4.2,0.9-3.7,6.8-5.1,10.6c-4.9,13.3-4.3,12.2,9.5,12.2c2.7-1.7,8.2,3,10.4-3.4c1.7-5,3.4-10,5.1-15    C260.4,419.6,260.9,417.1,258.5,416.9z M232.7,346.3c-4.4,0-7,1.1-7.8,5.6c-0.4,2-1.4,3.9-2,5.9c-3.8,11.4-3.8,11.4,8.5,11.5    c5.4-0.2,11,1.7,13.3-6.6C249.5,346.1,250,346.4,232.7,346.3z M226.1,381.7c-11.1,0-11.1,0-14.6,10.6c-0.9,2.6-1.9,5.2-2.6,7.9    c-0.5,1.8-0.8,4.2,1.9,4.3c6,0.3,12.3,1.2,18-0.2c4.6-1.1,4-7.3,5.5-11.3C238.2,381.7,238,381.7,226.1,381.7z M213.1,416.6    c-2.7,1.9-8.3-3.1-10.7,2.9c-2.1,5.1-3.5,10.5-5.3,15.8c-0.7,2-0.7,4.2,1.7,4.3c6.2,0.3,12.8,1.1,18.7-0.4c3.8-1,3.7-7,5-10.9    C226.5,416.1,228.4,416.6,213.1,416.6z M213.1,416.6c-2.7,1.9-8.3-3.1-10.7,2.9c-2.1,5.1-3.5,10.5-5.3,15.8    c-0.7,2-0.7,4.2,1.7,4.3c6.2,0.3,12.8,1.1,18.7-0.4c3.8-1,3.7-7,5-10.9C226.5,416.1,228.4,416.6,213.1,416.6z M226.1,381.7    c-11.1,0-11.1,0-14.6,10.6c-0.9,2.6-1.9,5.2-2.6,7.9c-0.5,1.8-0.8,4.2,1.9,4.3c6,0.3,12.3,1.2,18-0.2c4.6-1.1,4-7.3,5.5-11.3    C238.2,381.7,238,381.7,226.1,381.7z M232.7,346.3c-4.4,0-7,1.1-7.8,5.6c-0.4,2-1.4,3.9-2,5.9c-3.8,11.4-3.8,11.4,8.5,11.5    c5.4-0.2,11,1.7,13.3-6.6C249.5,346.1,250,346.4,232.7,346.3z M258.5,416.9c-6.2-0.4-12.6-1.1-18.6,0.2c-4.2,0.9-3.7,6.8-5.1,10.6    c-4.9,13.3-4.3,12.2,9.5,12.2c2.7-1.7,8.2,3,10.4-3.4c1.7-5,3.4-10,5.1-15C260.4,419.6,260.9,417.1,258.5,416.9z M261.3,381.7    c-11.4,0-11.4,0-15,11c-0.9,2.6-1.9,5.2-2.6,7.9c-0.5,2-0.3,4,2.3,4c6,0.1,12.4,1,18-0.5c4.2-1.2,4-7.3,5.4-11.4    C273.3,381.7,273.2,381.7,261.3,381.7z M269.8,346.3c-6.4-0.3-9.4,1.8-10.6,7.6c-0.3,1.3-0.9,2.6-1.3,3.9    c-3.8,11.4-3.8,11.4,8.5,11.4c12.6-0.2,10.1,1.9,13.7-8.7C284.8,346.6,284.7,347,269.8,346.3z M298.1,381.7    c-13.1,0-13,0.1-17,11.8c-4.6,13.4-3.3,11.2,8.2,11.4c11,0,11,0,14.6-10.6c0.4-1.1,0.8-2.2,1.1-3.3    C308,381.7,308,381.7,298.1,381.7z M301.6,346.3c-3.6,0.1-5.6,1.3-6.4,4.7c-0.5,2.2-1.5,4.4-2.1,6.6c-4,13.1-4.8,11.6,8.6,11.6    c5.1-0.3,10.6,2,13-6.3C319.7,345.6,320.2,345.9,301.6,346.3z M301.6,346.3c-3.6,0.1-5.6,1.3-6.4,4.7c-0.5,2.2-1.5,4.4-2.1,6.6    c-4,13.1-4.8,11.6,8.6,11.6c5.1-0.3,10.6,2,13-6.3C319.7,345.6,320.2,345.9,301.6,346.3z M298.1,381.7c-13.1,0-13,0.1-17,11.8    c-4.6,13.4-3.3,11.2,8.2,11.4c11,0,11,0,14.6-10.6c0.4-1.1,0.8-2.2,1.1-3.3C308,381.7,308,381.7,298.1,381.7z M269.8,346.3    c-6.4-0.3-9.4,1.8-10.6,7.6c-0.3,1.3-0.9,2.6-1.3,3.9c-3.8,11.4-3.8,11.4,8.5,11.4c12.6-0.2,10.1,1.9,13.7-8.7    C284.8,346.6,284.7,347,269.8,346.3z M261.3,381.7c-11.4,0-11.4,0-15,11c-0.9,2.6-1.9,5.2-2.6,7.9c-0.5,2-0.3,4,2.3,4    c6,0.1,12.4,1,18-0.5c4.2-1.2,4-7.3,5.4-11.4C273.3,381.7,273.2,381.7,261.3,381.7z M258.5,416.9c-6.2-0.4-12.6-1.1-18.6,0.2    c-4.2,0.9-3.7,6.8-5.1,10.6c-4.9,13.3-4.3,12.2,9.5,12.2c2.7-1.7,8.2,3,10.4-3.4c1.7-5,3.4-10,5.1-15    C260.4,419.6,260.9,417.1,258.5,416.9z M232.7,346.3c-4.4,0-7,1.1-7.8,5.6c-0.4,2-1.4,3.9-2,5.9c-3.8,11.4-3.8,11.4,8.5,11.5    c5.4-0.2,11,1.7,13.3-6.6C249.5,346.1,250,346.4,232.7,346.3z M226.1,381.7c-11.1,0-11.1,0-14.6,10.6c-0.9,2.6-1.9,5.2-2.6,7.9    c-0.5,1.8-0.8,4.2,1.9,4.3c6,0.3,12.3,1.2,18-0.2c4.6-1.1,4-7.3,5.5-11.3C238.2,381.7,238,381.7,226.1,381.7z M213.1,416.6    c-2.7,1.9-8.3-3.1-10.7,2.9c-2.1,5.1-3.5,10.5-5.3,15.8c-0.7,2-0.7,4.2,1.7,4.3c6.2,0.3,12.8,1.1,18.7-0.4c3.8-1,3.7-7,5-10.9    C226.5,416.1,228.4,416.6,213.1,416.6z"/>
		<path class="st0" d="M363.7,277l-0.1,0.2l0,0C363.6,277.1,363.6,277,363.7,277z"/>
		<path class="st0" d="M254.8,277.1L254.8,277.1l-0.1-0.1C254.7,277,254.7,277,254.8,277.1z"/>
		<path class="st0" d="M264.6,277l-0.2,0.2l0,0C264.5,277,264.5,277,264.6,277z"/>
		<path class="st0" d="M282.7,277.1L282.7,277.1l-0.2-0.1C282.6,277,282.6,277,282.7,277.1z"/>
		<path class="st0" d="M292.3,277.1C292.4,277.1,292.4,277.1,292.3,277.1c0.1-0.1,0.1-0.1,0.1-0.1L292.3,277.1z"/>
		<path class="st0" d="M222.5,428.3c-1.3,3.9-1.2,9.9-5,10.9c-5.9,1.5-12.4,0.7-18.7,0.4c-2.4-0.1-2.4-2.3-1.7-4.3    c1.8-5.2,3.2-10.6,5.3-15.8c2.4-5.9,8-1,10.7-2.9C228.4,416.6,226.5,416.1,222.5,428.3z"/>
		<path class="st0" d="M259.8,421.4c-1.7,5-3.4,10-5.1,15c-2.2,6.4-7.8,1.7-10.4,3.4c-13.8,0-14.4,1.1-9.5-12.2    c1.4-3.8,0.9-9.7,5.1-10.6c5.9-1.3,12.4-0.6,18.6-0.2C260.9,417.1,260.4,419.6,259.8,421.4z"/>
		<path class="st0" d="M234.2,393c-1.4,4-0.9,10.2-5.5,11.3c-5.7,1.4-12,0.5-18,0.2c-2.6-0.1-2.4-2.5-1.9-4.3    c0.8-2.7,1.7-5.3,2.6-7.9c3.6-10.6,3.6-10.6,14.6-10.6C238,381.7,238.2,381.7,234.2,393z"/>
		<path class="st0" d="M269.3,392.7c-1.4,4-1.2,10.2-5.4,11.4c-5.6,1.5-11.9,0.6-18,0.5c-2.6,0-2.8-2.1-2.3-4    c0.7-2.7,1.8-5.3,2.6-7.9c3.6-11,3.6-11,15-11C273.2,381.7,273.3,381.7,269.3,392.7z"/>
		<path class="st0" d="M305,391c-0.3,1.1-0.7,2.2-1.1,3.3c-3.6,10.6-3.6,10.6-14.6,10.6c-11.5-0.2-12.8,2.1-8.2-11.4    c4-11.7,3.9-11.8,17-11.8C308,381.7,308,381.7,305,391z"/>
		<path class="st0" d="M244.7,362.7c-2.4,8.3-8,6.4-13.3,6.6c-12.3,0-12.3,0-8.5-11.5c0.6-2,1.7-3.9,2-5.9c0.8-4.5,3.4-5.6,7.8-5.6    C250,346.4,249.5,346.1,244.7,362.7z"/>
		<path class="st0" d="M280.1,360.6c-3.6,10.6-1.1,8.5-13.7,8.7c-12.3,0-12.3,0-8.5-11.4c0.4-1.3,1-2.6,1.3-3.9    c1.2-5.8,4.2-8,10.6-7.6C284.7,347,284.8,346.6,280.1,360.6z"/>
		<path class="st0" d="M314.6,363c-2.4,8.2-7.9,5.9-13,6.3c-13.5-0.1-12.7,1.5-8.6-11.6c0.7-2.2,1.6-4.4,2.1-6.6    c0.9-3.4,2.8-4.6,6.4-4.7C320.2,345.9,319.7,345.6,314.6,363z"/>
		<path class="st0" d="M353.9,277v0.5c-0.1,5.9-1.5,11.5-5,16.5c-6.9,9.8-18.3,9.8-25.2,0c-3.5-5-5.1-10.5-4.8-16.6    c0-0.1,0-0.2,0-0.2V277H353.9z"/>
	</g>
	<path class="st0" d="M282,278.9c0,0,2.2-21.7,20.9-29.7c0,0,5.5-2.9,14.7-0.1c0,0-3.5,7-8.2,8.2c-4.7,1.1-12.6,3.4-16,21.7   L282,278.9z"/>
	<path class="st0" d="M253.9,278.9c0,0,2.2-21.7,20.9-29.7c0,0,5.5-2.9,14.7-0.1c0,0-3.5,7-8.2,8.2c-4.7,1.1-12.6,3.4-16,21.7   L253.9,278.9z"/>
	<path class="st0" d="M227.1,278.9c0,0,2.2-21.7,20.9-29.7c0,0,5.5-2.9,14.7-0.1c0,0-3.5,7-8.2,8.2c-4.7,1.1-12.6,3.4-16,21.7   L227.1,278.9z"/>
	<path class="st0" d="M363.5,277.8l-9.8,0.1c0,0,0.5-22.3-16.7-24.5c0,0-15.3-2.7-18.3,23.7l-9.7,0.3c0,0,1.6-31.5,26.3-33.1   C335.3,244.2,361.4,242.5,363.5,277.8z"/>
</g>
</svg>